<svg width="124" height="40" viewBox="0 0 124 40" fill="none" xmlns="http://www.w3.org/2000/svg">
<path d="M70.536 11.7876H73.632V23.7876H70.536V22.3716C69.608 23.5396 68.304 24.1236 66.624 24.1236C65.024 24.1236 63.648 23.5156 62.496 22.2996C61.36 21.0676 60.792 19.5636 60.792 17.7876C60.792 16.0116 61.36 14.5156 62.496 13.2996C63.648 12.0676 65.024 11.4516 66.624 11.4516C68.304 11.4516 69.608 12.0356 70.536 13.2036V11.7876ZM64.824 20.2356C65.448 20.8596 66.24 21.1716 67.2 21.1716C68.16 21.1716 68.952 20.8596 69.576 20.2356C70.216 19.5956 70.536 18.7796 70.536 17.7876C70.536 16.7956 70.216 15.9876 69.576 15.3636C68.952 14.7236 68.16 14.4036 67.2 14.4036C66.24 14.4036 65.448 14.7236 64.824 15.3636C64.2 15.9876 63.888 16.7956 63.888 17.7876C63.888 18.7796 64.2 19.5956 64.824 20.2356ZM76.9194 23.7876V6.2676H80.0154V23.7876H76.9194ZM84.8651 10.3476C84.3531 10.3476 83.9051 10.1636 83.5211 9.7956C83.1531 9.4116 82.9691 8.9636 82.9691 8.4516C82.9691 7.9396 83.1531 7.4916 83.5211 7.1076C83.9051 6.7236 84.3531 6.5316 84.8651 6.5316C85.3931 6.5316 85.8411 6.7236 86.2091 7.1076C86.5931 7.4916 86.7851 7.9396 86.7851 8.4516C86.7851 8.9636 86.5931 9.4116 86.2091 9.7956C85.8411 10.1636 85.3931 10.3476 84.8651 10.3476ZM83.3291 23.7876V11.7876H86.4251V23.7876H83.3291ZM97.6588 11.7876H100.755V23.7876H97.6588V22.4436C96.9068 23.5636 95.7148 24.1236 94.0828 24.1236C92.7708 24.1236 91.6828 23.6836 90.8188 22.8036C89.9708 21.9236 89.5468 20.7076 89.5468 19.1556V11.7876H92.6428V18.7716C92.6428 19.5716 92.8588 20.1876 93.2908 20.6196C93.7228 21.0356 94.2988 21.2436 95.0188 21.2436C95.8188 21.2436 96.4588 20.9956 96.9388 20.4996C97.4188 20.0036 97.6588 19.2596 97.6588 18.2676V11.7876ZM117.342 11.4516C118.718 11.4516 119.814 11.8996 120.63 12.7956C121.462 13.6916 121.878 14.8916 121.878 16.3956V23.7876H118.782V16.6116C118.782 15.8916 118.606 15.3316 118.254 14.9316C117.902 14.5316 117.406 14.3316 116.766 14.3316C116.062 14.3316 115.51 14.5636 115.11 15.0276C114.726 15.4916 114.534 16.1636 114.534 17.0436V23.7876H111.438V16.6116C111.438 15.8916 111.262 15.3316 110.91 14.9316C110.558 14.5316 110.062 14.3316 109.422 14.3316C108.734 14.3316 108.182 14.5636 107.766 15.0276C107.366 15.4916 107.166 16.1636 107.166 17.0436V23.7876H104.07V11.7876H107.166V13.0596C107.886 11.9876 108.998 11.4516 110.502 11.4516C111.974 11.4516 113.062 12.0276 113.766 13.1796C114.566 12.0276 115.758 11.4516 117.342 11.4516Z" fill="#0B1359"/>
<path opacity="0.5" d="M61.92 32.4436C61.92 32.6436 62.028 32.8036 62.244 32.9236C62.468 33.0356 62.736 33.1356 63.048 33.2236C63.368 33.3036 63.688 33.3996 64.008 33.5116C64.328 33.6236 64.596 33.8156 64.812 34.0876C65.036 34.3516 65.148 34.6876 65.148 35.0956C65.148 35.6716 64.924 36.1236 64.476 36.4516C64.036 36.7796 63.48 36.9436 62.808 36.9436C62.216 36.9436 61.708 36.8196 61.284 36.5716C60.86 36.3236 60.552 35.9796 60.36 35.5396L61.476 34.8916C61.684 35.4676 62.128 35.7556 62.808 35.7556C63.488 35.7556 63.828 35.5316 63.828 35.0836C63.828 34.8916 63.716 34.7356 63.492 34.6156C63.276 34.4956 63.008 34.3956 62.688 34.3156C62.376 34.2276 62.06 34.1276 61.74 34.0156C61.42 33.9036 61.148 33.7196 60.924 33.4636C60.708 33.1996 60.6 32.8676 60.6 32.4676C60.6 31.9156 60.808 31.4716 61.224 31.1356C61.648 30.7996 62.172 30.6316 62.796 30.6316C63.292 30.6316 63.732 30.7436 64.116 30.9676C64.508 31.1836 64.808 31.4876 65.016 31.8796L63.924 32.4916C63.716 32.0356 63.34 31.8076 62.796 31.8076C62.548 31.8076 62.34 31.8636 62.172 31.9756C62.004 32.0796 61.92 32.2356 61.92 32.4436ZM77.7649 30.7876H79.1329L77.2489 36.7876H75.9769L74.7289 32.7436L73.4689 36.7876H72.1969L70.3129 30.7876H71.6809L72.8449 34.9276L74.1049 30.7876H75.3409L76.5889 34.9276L77.7649 30.7876ZM89.4049 30.7876H90.7009V36.7876H89.4049V35.9236C88.9169 36.6036 88.2169 36.9436 87.3049 36.9436C86.4809 36.9436 85.7769 36.6396 85.1929 36.0316C84.6089 35.4156 84.3169 34.6676 84.3169 33.7876C84.3169 32.8996 84.6089 32.1516 85.1929 31.5436C85.7769 30.9356 86.4809 30.6316 87.3049 30.6316C88.2169 30.6316 88.9169 30.9676 89.4049 31.6396V30.7876ZM86.1529 35.1676C86.5129 35.5276 86.9649 35.7076 87.5089 35.7076C88.0529 35.7076 88.5049 35.5276 88.8649 35.1676C89.2249 34.7996 89.4049 34.3396 89.4049 33.7876C89.4049 33.2356 89.2249 32.7796 88.8649 32.4196C88.5049 32.0516 88.0529 31.8676 87.5089 31.8676C86.9649 31.8676 86.5129 32.0516 86.1529 32.4196C85.7929 32.7796 85.6129 33.2356 85.6129 33.7876C85.6129 34.3396 85.7929 34.7996 86.1529 35.1676ZM100.407 30.6316C101.231 30.6316 101.935 30.9396 102.519 31.5556C103.103 32.1636 103.395 32.9076 103.395 33.7876C103.395 34.6756 103.103 35.4236 102.519 36.0316C101.935 36.6396 101.231 36.9436 100.407 36.9436C99.4955 36.9436 98.7955 36.6076 98.3075 35.9356V39.1876H97.0115V30.7876H98.3075V31.6516C98.7955 30.9716 99.4955 30.6316 100.407 30.6316ZM98.8475 35.1676C99.2075 35.5276 99.6595 35.7076 100.203 35.7076C100.747 35.7076 101.199 35.5276 101.559 35.1676C101.919 34.7996 102.099 34.3396 102.099 33.7876C102.099 33.2356 101.919 32.7796 101.559 32.4196C101.199 32.0516 100.747 31.8676 100.203 31.8676C99.6595 31.8676 99.2075 32.0516 98.8475 32.4196C98.4875 32.7796 98.3075 33.2356 98.3075 33.7876C98.3075 34.3396 98.4875 34.7996 98.8475 35.1676Z" fill="#0B1359"/>
<path fill-rule="evenodd" clip-rule="evenodd" d="M19.9957 0C8.95236 0 0 8.95417 0 19.9997C0 31.0452 8.95236 39.9994 19.9957 39.9994C23.9169 39.9994 27.5611 38.8795 30.648 36.9288C31.566 36.3966 32.6271 36.0966 33.7645 36.0966C36.319 36.0966 38.5146 37.633 39.4782 39.8322C39.5223 39.9328 39.6206 39.9998 39.7304 39.9998C39.8792 39.9998 39.9997 39.8792 39.9997 39.7305L39.9903 20.2047C39.991 20.1364 39.9913 20.0681 39.9913 19.9997C39.9913 8.95417 31.039 0 19.9957 0ZM11.0368 19.9998C11.0368 24.9486 15.0478 28.9604 19.9956 28.9604C24.9434 28.9604 28.9544 24.9486 28.9544 19.9998C28.9544 15.051 24.9434 11.0392 19.9956 11.0392C15.0478 11.0392 11.0368 15.051 11.0368 19.9998Z" fill="url(#paint0_linear)"/>
<path d="M19.9956 39.9994C23.9168 39.9994 27.561 38.8794 30.6479 36.9288C31.5659 36.3966 32.627 36.0965 33.7644 36.0965C36.3189 36.0965 38.5145 37.6329 39.4781 39.8322C39.5222 39.9328 39.6205 39.9998 39.7303 39.9998C39.8791 39.9998 39.9996 39.8792 39.9996 39.7304L39.9902 20.2047C39.9909 20.1364 39.9912 20.0681 39.9912 19.9997C39.9912 17.7737 39.6277 15.6327 38.9567 13.6328L28.3814 16.8401C28.7517 17.8227 28.9542 18.8876 28.9542 19.9998C28.9542 24.9486 24.9433 28.9604 19.9954 28.9604C15.0476 28.9604 11.0367 24.9486 11.0367 19.9998L1.59351 27.8369C4.64138 34.9872 11.7333 39.9994 19.9956 39.9994Z" fill="url(#paint1_linear)"/>
<path fill-rule="evenodd" clip-rule="evenodd" d="M0 19.9997C0 8.95417 8.95236 0 19.9957 0C31.039 0 39.9913 8.95417 39.9913 19.9997C39.9913 20.0681 39.991 20.1364 39.9903 20.2047L39.9997 39.7305C39.9997 39.8792 39.8792 39.9998 39.7304 39.9998C39.6206 39.9998 39.5223 39.9328 39.4782 39.8322C38.5146 37.633 36.319 36.0966 33.7645 36.0966C32.6271 36.0966 31.566 36.3966 30.648 36.9288C27.5611 38.8795 23.9169 39.9994 19.9957 39.9994C8.95236 39.9994 0 31.0452 0 19.9997ZM21.5025 30.694C27.2952 30.694 31.9911 25.9972 31.9911 20.2033C31.9911 19.7103 31.957 19.2253 31.8913 18.7503L28.8946 18.9589C28.3789 14.5005 24.5914 11.0392 19.9956 11.0392C15.0478 11.0392 11.0368 15.051 11.0368 19.9998C11.0368 20.0673 11.0376 20.1345 11.0391 20.2016L11.0139 20.2033C11.0139 25.9972 15.7098 30.694 21.5025 30.694Z" fill="url(#paint2_linear)"/>
<path d="M39.9998 39.7304C39.9998 39.8792 39.8793 39.9998 39.7305 39.9998C39.6207 39.9998 39.5224 39.9328 39.4783 39.8322C38.5147 37.6329 36.3191 36.0966 33.7646 36.0966C32.6272 36.0966 31.5661 36.3966 30.6481 36.9288C27.5612 38.8794 23.917 39.9994 19.9958 39.9994C14.0776 39.9994 8.75999 37.4278 5.09888 33.3409L14.3328 27.8605C16.2082 29.6179 18.7296 30.694 21.5023 30.694C25.6997 30.694 29.3211 28.228 30.9975 24.6655H39.9926L39.9998 39.7304Z" fill="url(#paint3_linear)"/>
<path fill-rule="evenodd" clip-rule="evenodd" d="M19.9957 0C8.95236 0 0 8.95417 0 19.9997C0 31.0452 8.95236 39.9994 19.9957 39.9994C22.1234 39.9994 24.1695 39.6697 26.0893 39.0564C17.3496 39.0178 10.2767 31.9196 10.2767 23.1691C10.2767 20.7139 10.8335 18.3888 11.8277 16.3132H11.8278C13.2331 13.2033 16.3617 11.0392 19.9956 11.0392C23.6295 11.0392 26.7581 13.2033 28.1635 16.3132H33.4456L37.0195 11.5736C37.7593 12.267 38.4328 13.0305 39.0293 13.8533C36.4366 5.81498 28.8951 0 19.9957 0Z" fill="#C4C4C4"/>
<path d="M19.9957 0C8.95236 0 0 8.95417 0 19.9997C0 31.0452 8.95236 39.9994 19.9957 39.9994C22.1234 39.9994 24.1695 39.6697 26.0893 39.0564C17.3496 39.0178 10.2767 31.9196 10.2767 23.1691C10.2767 20.7139 10.8335 18.3888 11.8277 16.3132C13.233 13.2032 16.3616 11.0392 19.9955 11.0392C23.6295 11.0392 26.7581 13.2032 28.1634 16.3132H33.4456L37.0195 11.5736C37.7593 12.267 38.4328 13.0305 39.0293 13.8533C36.4366 5.81498 28.8951 0 19.9957 0Z" fill="url(#paint4_linear)"/>
<path d="M20.1462 35.0885C23.1096 35.0885 25.7509 33.7093 27.4636 31.5577L23.5796 38.6492L20.1462 38.9826L13.1376 35.0885C11.7552 33.6211 8.99039 30.6346 8.99039 30.4272C8.99039 30.2198 10.5427 29.2715 11.3189 28.8233C12.5931 32.4714 16.0641 35.0885 20.1462 35.0885Z" fill="url(#paint5_linear)"/>
<g opacity="0.7">
<path d="M19.9957 0C8.95236 0 0 8.95417 0 19.9997C0 31.0452 8.95236 39.9994 19.9957 39.9994C22.1234 39.9994 24.1695 39.6697 26.0893 39.0564C17.3496 39.0178 10.2767 31.9196 10.2767 23.1691C10.2767 20.7139 10.8335 18.3888 11.8277 16.3132C13.233 13.2032 16.3616 11.0392 19.9955 11.0392C23.6295 11.0392 26.7581 13.2032 28.1634 16.3132H33.4456L37.0195 11.5736C37.7593 12.267 38.4328 13.0305 39.0293 13.8533C36.4366 5.81498 28.8951 0 19.9957 0Z" fill="url(#paint6_linear)"/>
<path d="M20.1462 35.0885C23.1096 35.0885 25.7509 33.7093 27.4636 31.5577L23.5796 38.6492L20.1462 38.9826L13.1376 35.0885C11.7552 33.6211 8.99039 30.6346 8.99039 30.4272C8.99039 30.2198 10.5427 29.2715 11.3189 28.8233C12.5931 32.4714 16.0641 35.0885 20.1462 35.0885Z" fill="url(#paint7_linear)"/>
</g>
<path opacity="0.4" d="M18.4136 39.9378C8.10985 39.1312 0 30.5128 0 19.9998C0 14.1168 2.53962 8.82703 6.58213 5.16748L8.69125 6.74861C4.95119 9.94354 2.58009 14.6947 2.58009 19.9998C2.58009 27.0216 6.73404 33.0731 12.7181 35.8298C14.6033 36.6201 19.264 38.2401 22.8256 38.3973C26.3872 38.5545 22.423 39.5309 19.9957 39.9995C19.4632 39.9995 18.9356 39.9787 18.4136 39.9378Z" fill="url(#paint8_radial)"/>
<path fill-rule="evenodd" clip-rule="evenodd" d="M0.399272 23.9966L0.47506 24.2407C0.262664 23.2562 0.150822 22.2343 0.150822 21.1862C0.150822 13.2262 6.60236 6.77338 14.5607 6.77338C19.7039 6.77338 24.2178 9.46842 26.7676 13.5236L23.3539 5.32656L14.5607 4.19141L5.22809 6.51602C1.98072 10.0719 0 14.8047 0 20.0002C0 21.3688 0.137442 22.7053 0.399272 23.9966Z" fill="url(#paint9_linear)"/>
<path d="M4.59766 7.2397C8.2654 2.81687 13.8016 0 19.9956 0C31.0389 0 39.9912 8.95417 39.9912 19.9997C39.9912 20.0681 39.9909 20.1364 39.9902 20.2047L39.9996 39.7305C39.9996 39.8792 39.8791 39.9998 39.7303 39.9998C39.6205 39.9998 39.5222 39.9328 39.4781 39.8322C38.5145 37.633 36.3189 36.0966 33.7644 36.0966C32.627 36.0966 31.5659 36.3966 30.6479 36.9288C27.561 38.8795 23.9168 39.9994 19.9956 39.9994C18.607 39.9994 17.2514 39.8578 15.9426 39.5883C23.6616 37.8712 29.4328 30.9816 29.4328 22.7439C29.4328 13.2137 21.7086 5.48799 12.1804 5.48799C9.45978 5.48799 6.88627 6.11784 4.59766 7.2397Z" fill="url(#paint10_linear)"/>
<path d="M10.9299 37.8304C13.2072 38.991 15.7363 39.7281 18.4136 39.9377C18.9356 39.9785 19.4631 39.9994 19.9956 39.9994C20.2539 39.9495 20.5299 39.8938 20.8121 39.8341L20.0562 38.0969C18.784 38.7718 17.3329 39.1542 15.7924 39.1542C14.0305 39.1542 12.3853 38.654 10.9912 37.7878L10.9299 37.8304Z" fill="url(#paint11_linear)"/>
<path opacity="0.4" d="M39.9907 20.2047C39.9914 20.1364 39.9917 20.0681 39.9917 19.9997C39.9917 8.95417 31.0394 0 19.9961 0C17.5863 0 15.2761 0.426369 13.1367 1.2078C12.8141 1.32562 12.4954 1.45152 12.1808 1.58525C9.21933 2.84423 6.62378 4.79704 4.59814 7.2397C7.34043 5.39699 15.1116 2.34656 24.2578 4.88661C30.8553 6.74403 35.6916 12.807 35.6916 19.9997C35.6916 20.0537 35.6913 20.1076 35.6908 20.1615L35.6905 20.1841L35.6962 31.9722L35.6984 36.4022C36.1015 36.5336 36.4866 36.705 36.849 36.9116C37.9782 37.5557 38.8867 38.5425 39.4329 39.7305C39.4484 39.7641 39.4637 39.7982 39.4786 39.8322C39.5227 39.9328 39.621 39.9998 39.7308 39.9998C39.8796 39.9998 40.0001 39.8792 40.0001 39.7305L39.9907 20.2047Z" fill="url(#paint12_radial)"/>
<path d="M19.9956 0C31.0389 0 39.9912 8.95417 39.9912 19.9997L39.9902 20.2047L39.9984 37.1457H38.2783L38.2702 20.1965L38.2712 19.9997C38.2712 9.90432 30.0889 1.7204 19.9956 1.7204C18.7218 1.7204 17.4785 1.85064 16.2783 2.09859C15.2832 2.32802 14.2552 2.64374 13.2327 3.01235C9.81115 4.24588 6.45177 6.07185 4.59766 7.2397C5.48338 6.17163 6.47807 5.19722 7.56467 4.33351C10.9776 1.62065 15.2974 0 19.9956 0Z" fill="url(#paint13_radial)"/>
<defs>
<linearGradient id="paint0_linear" x1="29.7936" y1="39.9998" x2="11.8863" y2="27.8444" gradientUnits="userSpaceOnUse">
<stop stop-color="#069F5F"/>
<stop offset="1" stop-color="#007E49"/>
</linearGradient>
<linearGradient id="paint1_linear" x1="28.5249" y1="27.488" x2="9.33564" y2="37.4284" gradientUnits="userSpaceOnUse">
<stop stop-color="#005531"/>
<stop offset="1" stop-color="#005531" stop-opacity="0"/>
</linearGradient>
<linearGradient id="paint2_linear" x1="29.7936" y1="39.9998" x2="11.8863" y2="27.8444" gradientUnits="userSpaceOnUse">
<stop stop-color="#0FA968"/>
<stop offset="1" stop-color="#088E56"/>
</linearGradient>
<linearGradient id="paint3_linear" x1="27.4783" y1="35.4679" x2="12.9603" y2="32.3339" gradientUnits="userSpaceOnUse">
<stop stop-color="#005531"/>
<stop offset="1" stop-color="#005531" stop-opacity="0"/>
</linearGradient>
<linearGradient id="paint4_linear" x1="10.9303" y1="33.7645" x2="7.7404" y2="14.5549" gradientUnits="userSpaceOnUse">
<stop stop-color="#0FA968"/>
<stop offset="1" stop-color="#0D995E"/>
</linearGradient>
<linearGradient id="paint5_linear" x1="10.9303" y1="33.7645" x2="7.7404" y2="14.5549" gradientUnits="userSpaceOnUse">
<stop stop-color="#0FA968"/>
<stop offset="1" stop-color="#0D995E"/>
</linearGradient>
<linearGradient id="paint6_linear" x1="11.0192" y1="28.292" x2="14.8776" y2="9.78867" gradientUnits="userSpaceOnUse">
<stop stop-color="#008C51" stop-opacity="0"/>
<stop offset="1" stop-color="#00643A"/>
</linearGradient>
<linearGradient id="paint7_linear" x1="11.0192" y1="28.292" x2="14.8776" y2="9.78867" gradientUnits="userSpaceOnUse">
<stop stop-color="#008C51" stop-opacity="0"/>
<stop offset="1" stop-color="#00643A"/>
</linearGradient>
<radialGradient id="paint8_radial" cx="0" cy="0" r="1" gradientUnits="userSpaceOnUse" gradientTransform="translate(-5.80219 32.9475) rotate(-56.5654) scale(26.0211 18.1156)">
<stop stop-color="#8FFED0"/>
<stop offset="1" stop-color="#8FFED0" stop-opacity="0"/>
</radialGradient>
<linearGradient id="paint9_linear" x1="22.8086" y1="22.5404" x2="21.2121" y2="6.74311" gradientUnits="userSpaceOnUse">
<stop stop-color="#13AC6C"/>
<stop offset="1" stop-color="#15BF78"/>
</linearGradient>
<linearGradient id="paint10_linear" x1="34.7635" y1="36.6076" x2="30.02" y2="5.49208" gradientUnits="userSpaceOnUse">
<stop stop-color="#24BA7B"/>
<stop offset="1" stop-color="#33D993"/>
</linearGradient>
<linearGradient id="paint11_linear" x1="34.7635" y1="36.6076" x2="30.02" y2="5.49208" gradientUnits="userSpaceOnUse">
<stop stop-color="#24BA7B"/>
<stop offset="1" stop-color="#33D993"/>
</linearGradient>
<radialGradient id="paint12_radial" cx="0" cy="0" r="1" gradientUnits="userSpaceOnUse" gradientTransform="translate(25.9369 8.9234) rotate(59.3695) scale(24.6582 21.8261)">
<stop stop-color="#91FFD1"/>
<stop offset="1" stop-color="#90FFD1" stop-opacity="0"/>
</radialGradient>
<radialGradient id="paint13_radial" cx="0" cy="0" r="1" gradientUnits="userSpaceOnUse" gradientTransform="translate(28.5817 4.086) rotate(67.4688) scale(25.8798 23.2843)">
<stop stop-color="#A6FFD9"/>
<stop offset="1" stop-color="#A6FFD9" stop-opacity="0"/>
</radialGradient>
</defs>
</svg>
