<svg width="1440" height="803" viewBox="0 0 1440 803" fill="none" xmlns="http://www.w3.org/2000/svg">
<mask id="mask0" mask-type="alpha" maskUnits="userSpaceOnUse" x="0" y="0" width="1440" height="803">
<rect width="1440" height="803" fill="#C4C4C4"/>
</mask>
<g mask="url(#mask0)">
<path fill-rule="evenodd" clip-rule="evenodd" d="M1233.87 40.9142C1298.13 59.3571 1334.37 122.589 1393 154.692C1465.46 194.362 1585.7 172.646 1615.29 249.748C1644.41 325.629 1550.83 392.64 1511.63 463.841C1481.28 518.976 1453.84 571.719 1412.09 618.828C1358.05 679.816 1313.47 759.793 1233.87 777.304C1148.93 795.99 1056.18 765.905 987.813 712.164C920.701 659.41 885.916 575.591 870.475 491.655C856.422 415.263 885.97 342.184 905.942 267.12C927.306 186.828 922.435 86.4505 990.844 39.262C1059.19 -7.88514 1154.05 18.0044 1233.87 40.9142Z" fill="url(#paint0_linear)"/>
<path fill-rule="evenodd" clip-rule="evenodd" d="M1177.65 136.887C1229.26 137.807 1268.93 177.728 1319.08 189.958C1381.05 205.072 1466.39 164.855 1503.88 216.45C1540.76 267.229 1484.37 335.901 1469.37 396.838C1457.75 444.023 1447.83 488.843 1426.11 532.319C1398 588.602 1380.74 657.157 1324.87 686.119C1265.25 717.025 1190.06 713.115 1128.33 686.69C1067.72 660.751 1025.02 605.183 996.724 545.665C970.969 491.496 978.397 431.087 978.285 371.112C978.166 306.959 954.465 233.066 996.053 184.204C1037.61 135.386 1113.53 135.745 1177.65 136.887Z" fill="url(#paint1_linear)"/>
<g opacity="0.5">
<path d="M1053.05 78.0896L955.267 175.82C952.395 178.691 950.163 180.921 948.639 182.753L945.061 183.379L946.351 188.191C947.082 190.919 951.475 192.095 960.261 194.448L1093.83 230.22C1102.62 232.573 1107.01 233.75 1111.74 232.484C1116.47 231.217 1119.68 228.003 1126.12 221.575L1223.9 123.844C1230.33 117.416 1233.55 114.202 1232.82 111.474L1231.57 106.817L1227.69 107.754C1225.49 106.981 1222.59 106.202 1218.91 105.217L1085.33 69.4443C1076.55 67.0913 1072.15 65.9148 1067.43 67.1809C1062.7 68.447 1059.48 71.6612 1053.05 78.0896Z" fill="url(#paint2_diamond)"/>
<path d="M959.013 189.791C950.227 187.438 945.834 186.262 945.102 183.534C944.371 180.806 947.587 177.591 954.019 171.163L1051.8 73.4324C1058.23 67.004 1061.45 63.7897 1066.18 62.5237C1070.9 61.2576 1075.3 62.4341 1084.08 64.787L1217.66 100.559C1226.44 102.912 1230.84 104.088 1231.57 106.816C1232.3 109.544 1229.08 112.759 1222.65 119.187L1124.87 216.918C1118.44 223.346 1115.22 226.56 1110.49 227.826C1105.77 229.092 1101.37 227.916 1092.59 225.563L959.013 189.791Z" fill="url(#paint3_diamond)"/>
<g opacity="0.1">
<path d="M1087.34 68.3774L1070.5 63.8669C1069.06 63.4801 1067.03 64.0232 1065.97 65.08C1064.91 66.1368 1065.23 67.307 1066.67 67.6938L1083.51 72.2043C1084.96 72.5911 1086.99 72.048 1088.04 70.9912C1089.1 69.9344 1088.79 68.7642 1087.34 68.3774Z" fill="url(#paint4_linear)"/>
<path d="M1097.22 81.3734L1084.4 77.9392C1082.96 77.5524 1080.93 78.0955 1079.87 79.1523C1078.81 80.2091 1079.13 81.3793 1080.57 81.7661L1093.39 85.2003C1094.84 85.5871 1096.87 85.044 1097.92 83.9872C1098.98 82.9304 1098.67 81.7602 1097.22 81.3734Z" fill="url(#paint5_linear)"/>
<path d="M1119.4 97.6611L1095.13 91.1635C1093.69 90.7767 1091.66 91.3198 1090.6 92.3766C1089.55 93.4334 1089.86 94.6037 1091.31 94.9905L1115.57 101.488C1117.01 101.875 1119.04 101.332 1120.1 100.275C1121.15 99.2182 1120.84 98.0479 1119.4 97.6611Z" fill="url(#paint6_linear)"/>
<path d="M1096.46 101.868L1072.2 95.3705C1070.75 94.9837 1068.72 95.5269 1067.67 96.5836C1066.61 97.6404 1066.92 98.8107 1068.37 99.1975L1092.63 105.695C1094.07 106.082 1096.1 105.539 1097.16 104.482C1098.22 103.425 1097.9 102.255 1096.46 101.868Z" fill="url(#paint7_linear)"/>
<path d="M1056.33 101.467L1054.95 101.097C1053.5 100.71 1051.47 101.253 1050.42 102.31C1049.36 103.366 1049.67 104.537 1051.12 104.923L1052.5 105.294C1053.95 105.681 1055.97 105.138 1057.03 104.081C1058.09 103.024 1057.77 101.854 1056.33 101.467Z" fill="url(#paint8_linear)"/>
<path d="M1068.64 115.113L1044.37 108.615C1042.93 108.228 1040.9 108.771 1039.84 109.828C1038.79 110.885 1039.1 112.055 1040.55 112.442L1064.81 118.939C1066.25 119.326 1068.28 118.783 1069.34 117.726C1070.39 116.67 1070.08 115.499 1068.64 115.113Z" fill="url(#paint9_linear)"/>
<path d="M1027.67 114.492L1019.12 112.201C1017.67 111.814 1015.65 112.357 1014.59 113.414C1013.53 114.47 1013.85 115.641 1015.29 116.027L1023.84 118.319C1025.29 118.705 1027.32 118.162 1028.37 117.105C1029.43 116.049 1029.12 114.878 1027.67 114.492Z" fill="url(#paint10_linear)"/>
<path d="M1014.55 121.328L1010.02 120.113C1008.57 119.726 1006.54 120.27 1005.49 121.326C1004.43 122.383 1004.74 123.553 1006.19 123.94L1010.72 125.154C1012.17 125.541 1014.19 124.998 1015.25 123.941C1016.31 122.885 1016 121.714 1014.55 121.328Z" fill="url(#paint11_linear)"/>
<path d="M1021.18 133.458L1006.71 129.582C1005.27 129.196 1003.24 129.739 1002.19 130.794C1001.13 131.85 1001.44 133.019 1002.89 133.406L1017.36 137.282C1018.8 137.668 1020.83 137.125 1021.88 136.07C1022.94 135.014 1022.63 133.845 1021.18 133.458Z" fill="url(#paint12_linear)"/>
<path d="M1027.76 145.569L1003.49 139.07C1002.05 138.684 1000.02 139.226 998.967 140.282C997.911 141.338 998.224 142.507 999.667 142.894L1023.93 149.392C1025.38 149.779 1027.4 149.236 1028.46 148.181C1029.52 147.125 1029.2 145.956 1027.76 145.569Z" fill="url(#paint13_linear)"/>
<path d="M1038.47 158.782L1014.2 152.285C1012.76 151.898 1010.73 152.441 1009.67 153.498C1008.62 154.555 1008.93 155.725 1010.37 156.112L1034.64 162.609C1036.08 162.996 1038.11 162.453 1039.17 161.396C1040.22 160.339 1039.91 159.169 1038.47 158.782Z" fill="url(#paint14_linear)"/>
<path d="M1034.41 168.044L1033.13 167.701C1031.68 167.314 1029.65 167.857 1028.6 168.914C1027.54 169.971 1027.85 171.141 1029.3 171.528L1030.58 171.871C1032.02 172.258 1034.05 171.715 1035.11 170.658C1036.17 169.601 1035.85 168.431 1034.41 168.044Z" fill="url(#paint15_linear)"/>
<path d="M1046.76 181.701L1022.49 175.204C1021.05 174.817 1019.02 175.36 1017.96 176.417C1016.91 177.474 1017.22 178.644 1018.67 179.031L1042.93 185.528C1044.37 185.915 1046.4 185.372 1047.46 184.315C1048.51 183.259 1048.2 182.088 1046.76 181.701Z" fill="url(#paint16_linear)"/>
<path d="M1018.08 184.366L993.815 177.868C992.37 177.482 990.342 178.025 989.285 179.081C988.228 180.138 988.541 181.308 989.986 181.695L1014.25 188.193C1015.69 188.58 1017.72 188.036 1018.78 186.98C1019.83 185.923 1019.52 184.753 1018.08 184.366Z" fill="url(#paint17_linear)"/>
</g>
<path d="M1102.63 192.287L1099.86 195.056L1085.04 191.088L1083.77 194.171L1080.62 193.329L1082.91 187.377L1083.2 187.084L1102.63 192.287ZM1106.91 177.84C1109.6 178.558 1111.29 179.465 1112 180.561C1112.71 181.65 1112.41 182.855 1111.09 184.174C1109.78 185.481 1108.08 186.307 1105.99 186.654C1103.89 186.991 1101.54 186.828 1098.94 186.164L1095.28 185.183C1092.6 184.467 1090.91 183.565 1090.21 182.479C1089.5 181.389 1089.81 180.182 1091.13 178.855C1092.46 177.529 1094.18 176.7 1096.29 176.367C1098.4 176.034 1100.77 176.21 1103.38 176.894L1106.91 177.84ZM1100.21 179.556C1098.69 179.147 1097.43 178.951 1096.44 178.967C1095.46 178.984 1094.73 179.226 1094.26 179.694C1093.39 180.572 1094.33 181.401 1097.1 182.183L1101.93 183.479C1103.5 183.897 1104.77 184.098 1105.75 184.082C1106.75 184.059 1107.48 183.81 1107.95 183.336C1108.4 182.887 1108.38 182.46 1107.88 182.056C1107.39 181.642 1106.41 181.231 1104.94 180.823L1100.21 179.556ZM1117.04 167.715C1119.73 168.434 1121.42 169.341 1122.13 170.436C1122.84 171.526 1122.54 172.73 1121.22 174.05C1119.91 175.356 1118.21 176.183 1116.12 176.529C1114.02 176.867 1111.67 176.704 1109.07 176.04L1105.41 175.058C1102.73 174.342 1101.04 173.441 1100.34 172.354C1099.63 171.265 1099.94 170.057 1101.26 168.731C1102.59 167.405 1104.31 166.575 1106.42 166.243C1108.53 165.91 1110.9 166.085 1113.51 166.769L1117.04 167.715ZM1110.34 169.432C1108.82 169.023 1107.56 168.826 1106.57 168.843C1105.59 168.859 1104.86 169.101 1104.39 169.569C1103.52 170.447 1104.46 171.277 1107.23 172.059L1112.06 173.354C1113.63 173.773 1114.9 173.974 1115.88 173.957C1116.88 173.934 1117.61 173.686 1118.08 173.211C1118.53 172.763 1118.51 172.336 1118.01 171.931C1117.52 171.517 1116.54 171.106 1115.07 170.699L1110.34 169.432ZM1131.8 152.966C1134.48 153.684 1136.18 154.591 1136.88 155.687C1137.6 156.776 1137.29 157.981 1135.97 159.3C1134.67 160.607 1132.97 161.434 1130.87 161.78C1128.78 162.117 1126.43 161.954 1123.83 161.29L1120.16 160.309C1117.49 159.593 1115.8 158.691 1115.1 157.605C1114.39 156.515 1114.69 155.308 1116.02 153.981C1117.35 152.655 1119.07 151.826 1121.18 151.493C1123.29 151.16 1125.66 151.336 1128.27 152.02L1131.8 152.966ZM1125.1 154.682C1123.57 154.273 1122.32 154.077 1121.33 154.093C1120.35 154.11 1119.62 154.352 1119.15 154.82C1118.27 155.698 1119.22 156.527 1121.98 157.309L1126.82 158.605C1128.38 159.023 1129.66 159.224 1130.64 159.208C1131.63 159.185 1132.37 158.936 1132.84 158.462C1133.29 158.013 1133.27 157.586 1132.77 157.182C1132.27 156.768 1131.29 156.357 1129.83 155.949L1125.1 154.682ZM1141.93 142.841C1144.61 143.56 1146.31 144.467 1147.01 145.562C1147.73 146.652 1147.42 147.856 1146.1 149.176C1144.8 150.482 1143.1 151.309 1141 151.655C1138.91 151.993 1136.56 151.83 1133.96 151.166L1130.29 150.184C1127.62 149.468 1125.93 148.567 1125.23 147.48C1124.52 146.391 1124.82 145.183 1126.15 143.857C1127.48 142.531 1129.2 141.701 1131.31 141.369C1133.42 141.036 1135.79 141.211 1138.4 141.895L1141.93 142.841ZM1135.23 144.558C1133.7 144.149 1132.45 143.952 1131.46 143.969C1130.48 143.985 1129.75 144.227 1129.28 144.695C1128.4 145.573 1129.35 146.403 1132.11 147.185L1136.95 148.48C1138.51 148.899 1139.79 149.1 1140.77 149.083C1141.76 149.06 1142.5 148.812 1142.97 148.337C1143.42 147.889 1143.4 147.462 1142.9 147.057C1142.4 146.643 1141.42 146.232 1139.96 145.825L1135.23 144.558ZM1152.06 132.717C1154.74 133.435 1156.44 134.342 1157.14 135.438C1157.86 136.527 1157.55 137.731 1156.23 139.051C1154.93 140.358 1153.23 141.184 1151.13 141.531C1149.04 141.868 1146.69 141.705 1144.09 141.041L1140.42 140.06C1137.75 139.344 1136.06 138.442 1135.36 137.355C1134.65 136.266 1134.95 135.058 1136.28 133.732C1137.61 132.406 1139.33 131.577 1141.44 131.244C1143.55 130.911 1145.92 131.087 1148.53 131.771L1152.06 132.717ZM1145.36 134.433C1143.83 134.024 1142.58 133.828 1141.59 133.844C1140.61 133.861 1139.88 134.103 1139.41 134.571C1138.53 135.448 1139.48 136.278 1142.24 137.06L1147.08 138.355C1148.64 138.774 1149.92 138.975 1150.9 138.959C1151.89 138.936 1152.63 138.687 1153.1 138.213C1153.55 137.764 1153.53 137.337 1153.03 136.932C1152.53 136.519 1151.55 136.108 1150.09 135.7L1145.36 134.433ZM1166.95 121.514C1166.22 121.317 1165.52 121.272 1164.88 121.378C1164.23 121.485 1163.46 121.742 1162.58 122.149C1160.98 122.982 1159.67 123.566 1158.64 123.899C1157.6 124.224 1156.61 124.408 1155.67 124.452C1154.71 124.493 1153.74 124.382 1152.76 124.118C1151.28 123.723 1150.37 123.098 1150.01 122.243C1149.64 121.385 1149.85 120.442 1150.66 119.413L1147.81 118.649L1149.28 117.177L1152.18 117.955C1153.42 117.049 1154.85 116.472 1156.48 116.225C1158.12 115.972 1159.78 116.07 1161.46 116.519L1158.7 119.279C1157.63 118.993 1156.72 118.894 1155.97 118.981C1155.23 119.062 1154.67 119.281 1154.32 119.639C1153.97 119.983 1153.91 120.308 1154.12 120.612C1154.33 120.917 1154.8 121.167 1155.53 121.362C1156.16 121.531 1156.79 121.57 1157.41 121.48C1158.03 121.391 1158.85 121.124 1159.86 120.679C1161.58 119.82 1162.95 119.238 1163.96 118.933C1164.97 118.619 1165.94 118.445 1166.86 118.412C1167.79 118.379 1168.73 118.491 1169.69 118.748C1171.19 119.15 1172.12 119.769 1172.47 120.607C1172.84 121.437 1172.6 122.391 1171.76 123.468L1174.41 124.178L1172.94 125.641L1170.29 124.931C1168.95 125.996 1167.42 126.689 1165.73 127.01C1164.03 127.329 1162.27 127.245 1160.45 126.76L1163.22 124C1164.26 124.281 1165.2 124.374 1166.01 124.279C1166.82 124.182 1167.47 123.886 1167.96 123.392C1168.36 122.996 1168.47 122.633 1168.29 122.305C1168.11 121.968 1167.66 121.705 1166.95 121.514Z" fill="url(#paint18_linear)"/>
<path d="M1124.47 194.013L1122.93 195.552L1114.7 193.347L1113.99 195.06L1112.25 194.592L1113.52 191.285L1113.68 191.123L1124.47 194.013ZM1129.44 183.398C1130.94 183.797 1131.88 184.301 1132.27 184.91C1132.66 185.515 1132.5 186.184 1131.76 186.917C1131.04 187.643 1130.09 188.102 1128.93 188.295C1127.76 188.482 1126.46 188.391 1125.01 188.023L1122.98 187.477C1121.49 187.08 1120.56 186.579 1120.16 185.975C1119.77 185.37 1119.94 184.699 1120.68 183.962C1121.41 183.225 1122.37 182.765 1123.54 182.58C1124.72 182.395 1126.03 182.492 1127.48 182.873L1129.44 183.398ZM1125.72 184.352C1124.87 184.124 1124.17 184.015 1123.63 184.024C1123.08 184.033 1122.68 184.168 1122.42 184.428C1121.93 184.916 1122.45 185.377 1123.99 185.811L1126.68 186.531C1127.54 186.763 1128.25 186.875 1128.8 186.866C1129.35 186.853 1129.76 186.715 1130.02 186.451C1130.27 186.202 1130.26 185.965 1129.98 185.74C1129.71 185.51 1129.16 185.282 1128.35 185.055L1125.72 184.352ZM1135.08 177.763C1136.57 178.162 1137.51 178.666 1137.91 179.275C1138.3 179.88 1138.13 180.549 1137.4 181.282C1136.67 182.008 1135.73 182.468 1134.57 182.66C1133.4 182.847 1132.1 182.757 1130.65 182.388L1128.62 181.843C1127.13 181.445 1126.19 180.944 1125.8 180.34C1125.41 179.735 1125.58 179.064 1126.31 178.328C1127.05 177.591 1128.01 177.13 1129.18 176.945C1130.35 176.76 1131.67 176.858 1133.12 177.238L1135.08 177.763ZM1131.36 178.717C1130.51 178.49 1129.81 178.381 1129.27 178.39C1128.72 178.399 1128.31 178.533 1128.05 178.793C1127.57 179.281 1128.09 179.742 1129.63 180.176L1132.31 180.896C1133.18 181.129 1133.89 181.24 1134.44 181.231C1134.99 181.218 1135.4 181.08 1135.66 180.817C1135.91 180.567 1135.9 180.33 1135.62 180.105C1135.34 179.876 1134.8 179.647 1133.99 179.421L1131.36 178.717ZM1140.72 172.129C1142.21 172.528 1143.15 173.032 1143.54 173.64C1143.94 174.246 1143.77 174.915 1143.04 175.648C1142.31 176.374 1141.37 176.833 1140.2 177.025C1139.04 177.213 1137.74 177.122 1136.29 176.753L1134.25 176.208C1132.77 175.81 1131.83 175.31 1131.44 174.706C1131.04 174.101 1131.21 173.43 1131.95 172.693C1132.69 171.956 1133.64 171.495 1134.82 171.31C1135.99 171.126 1137.31 171.223 1138.76 171.603L1140.72 172.129ZM1137 173.082C1136.15 172.855 1135.45 172.746 1134.9 172.755C1134.36 172.764 1133.95 172.899 1133.69 173.159C1133.2 173.646 1133.73 174.107 1135.26 174.542L1137.95 175.261C1138.82 175.494 1139.53 175.606 1140.08 175.597C1140.63 175.584 1141.03 175.446 1141.3 175.182C1141.55 174.933 1141.53 174.696 1141.26 174.471C1140.98 174.241 1140.44 174.013 1139.62 173.786L1137 173.082ZM1148.94 163.915C1150.43 164.314 1151.37 164.818 1151.76 165.427C1152.16 166.032 1151.99 166.701 1151.26 167.434C1150.53 168.16 1149.58 168.619 1148.42 168.812C1147.26 168.999 1145.95 168.908 1144.51 168.54L1142.47 167.994C1140.99 167.597 1140.05 167.096 1139.66 166.492C1139.26 165.887 1139.43 165.216 1140.17 164.479C1140.91 163.742 1141.86 163.282 1143.04 163.097C1144.21 162.912 1145.52 163.009 1146.98 163.389L1148.94 163.915ZM1145.21 164.868C1144.37 164.641 1143.67 164.532 1143.12 164.541C1142.57 164.55 1142.17 164.685 1141.91 164.945C1141.42 165.433 1141.95 165.893 1143.48 166.328L1146.17 167.047C1147.04 167.28 1147.75 167.392 1148.29 167.383C1148.84 167.37 1149.25 167.232 1149.52 166.968C1149.76 166.719 1149.75 166.482 1149.48 166.257C1149.2 166.027 1148.65 165.799 1147.84 165.572L1145.21 164.868ZM1154.58 158.28C1156.07 158.679 1157.01 159.183 1157.4 159.792C1157.8 160.397 1157.63 161.066 1156.89 161.799C1156.17 162.525 1155.22 162.984 1154.06 163.177C1152.9 163.364 1151.59 163.274 1150.15 162.905L1148.11 162.36C1146.62 161.962 1145.69 161.461 1145.3 160.857C1144.9 160.252 1145.07 159.581 1145.81 158.844C1146.54 158.108 1147.5 157.647 1148.67 157.462C1149.85 157.277 1151.16 157.375 1152.61 157.755L1154.58 158.28ZM1150.85 159.234C1150 159.007 1149.31 158.897 1148.76 158.907C1148.21 158.916 1147.81 159.05 1147.55 159.31C1147.06 159.798 1147.58 160.259 1149.12 160.693L1151.81 161.413C1152.68 161.645 1153.38 161.757 1153.93 161.748C1154.48 161.735 1154.89 161.597 1155.15 161.333C1155.4 161.084 1155.39 160.847 1155.11 160.622C1154.84 160.392 1154.29 160.164 1153.48 159.938L1150.85 159.234ZM1160.21 152.646C1161.7 153.045 1162.64 153.549 1163.04 154.157C1163.43 154.762 1163.26 155.432 1162.53 156.165C1161.8 156.891 1160.86 157.35 1159.7 157.542C1158.53 157.73 1157.23 157.639 1155.78 157.27L1153.75 156.725C1152.26 156.327 1151.32 155.826 1150.93 155.223C1150.54 154.618 1150.71 153.947 1151.45 153.21C1152.18 152.473 1153.14 152.012 1154.31 151.827C1155.49 151.643 1156.8 151.74 1158.25 152.12L1160.21 152.646ZM1156.49 153.599C1155.64 153.372 1154.94 153.263 1154.4 153.272C1153.85 153.281 1153.45 153.416 1153.18 153.676C1152.7 154.163 1153.22 154.624 1154.76 155.059L1157.45 155.778C1158.31 156.011 1159.02 156.123 1159.57 156.113C1160.12 156.101 1160.53 155.963 1160.79 155.699C1161.04 155.45 1161.03 155.213 1160.75 154.988C1160.47 154.758 1159.93 154.53 1159.12 154.303L1156.49 153.599ZM1169.98 145.733L1167.81 147.906L1169.59 148.919L1167.91 150.604L1159.59 145.252L1161.05 143.795L1174.31 144.2L1172.61 145.901L1169.98 145.733ZM1166.34 147.073L1167.82 145.6L1163.24 145.307L1166.34 147.073ZM1174.87 141.36L1177.66 138.564L1179.47 139.048L1175.08 143.436L1164.3 140.549L1165.89 138.957L1174.87 141.36ZM1171.72 133.138L1181 133.736L1174.69 130.164L1176.77 128.084L1187.55 130.97L1185.95 132.568L1183.04 131.787L1178.69 130.437L1184.52 133.998L1183.44 135.082L1174.45 134.674L1179.09 135.731L1182.01 136.512L1180.41 138.105L1169.63 135.218L1171.72 133.138Z" fill="url(#paint19_linear)"/>
<g opacity="0.3" filter="url(#filter0_f)">
<path d="M1142.68 169.446C1159.26 149.124 1192.74 108.432 1194.02 108.237L1005.79 136.955L973.188 173.071L1142.68 169.446Z" fill="white"/>
</g>
<path d="M1050.85 146.681L1052.24 145.291L1059.6 147.262L1058.21 148.651L1057.34 148.418C1057.64 149.027 1057.41 149.708 1056.66 150.461C1055.94 151.179 1054.95 151.697 1053.69 152.014C1052.42 152.322 1051.24 152.33 1050.16 152.038C1049.07 151.747 1048.4 151.246 1048.17 150.537C1047.93 149.818 1048.17 149.099 1048.89 148.381C1049.64 147.627 1050.59 147.138 1051.72 146.913L1050.85 146.681ZM1053.47 150.631C1054.13 150.453 1054.68 150.149 1055.11 149.718C1055.54 149.288 1055.7 148.881 1055.6 148.498C1055.5 148.106 1055.14 147.829 1054.53 147.666C1053.92 147.503 1053.28 147.514 1052.61 147.699C1051.94 147.874 1051.39 148.176 1050.96 148.607C1050.53 149.038 1050.37 149.446 1050.48 149.831C1050.58 150.214 1050.94 150.486 1051.55 150.649C1052.15 150.812 1052.79 150.806 1053.47 150.631Z" fill="#6F77BB"/>
<path d="M1061.07 145.786L1050.33 142.91L1051.72 141.521L1062.46 144.397L1061.07 145.786Z" fill="#6F77BB"/>
<path d="M1056.4 140.014C1056.17 140.244 1055.86 140.415 1055.46 140.527C1055.06 140.629 1054.7 140.638 1054.39 140.554C1054.08 140.47 1053.88 140.314 1053.81 140.085C1053.75 139.85 1053.83 139.618 1054.06 139.388C1054.3 139.151 1054.62 138.981 1055.02 138.879C1055.43 138.77 1055.79 138.757 1056.1 138.841C1056.42 138.925 1056.61 139.085 1056.67 139.321C1056.73 139.546 1056.64 139.777 1056.4 140.014ZM1063.95 142.91L1056.6 140.94L1057.99 139.551L1065.34 141.521L1063.95 142.91Z" fill="#6F77BB"/>
<path d="M1063.03 134.51L1064.42 133.12L1071.78 135.09L1070.39 136.48L1069.56 136.259C1069.91 136.78 1069.72 137.407 1068.99 138.14C1068.4 138.728 1067.64 139.144 1066.71 139.388C1065.79 139.624 1064.86 139.614 1063.9 139.359L1059.39 138.15L1060.78 136.761L1065.06 137.907C1065.55 138.038 1066.02 138.043 1066.48 137.92C1066.93 137.794 1067.32 137.57 1067.64 137.247C1068 136.888 1068.14 136.56 1068.05 136.263C1067.96 135.966 1067.61 135.736 1067 135.574L1063.03 134.51Z" fill="#6F77BB"/>
<path d="M1071.66 125.622C1072.28 125.004 1073.05 124.586 1073.96 124.367C1074.88 124.141 1075.81 124.151 1076.73 124.398L1081.26 125.611L1079.87 127.001L1075.47 125.823C1075.03 125.704 1074.61 125.691 1074.2 125.784C1073.8 125.876 1073.46 126.066 1073.17 126.353C1072.85 126.669 1072.75 126.955 1072.85 127.21C1072.96 127.459 1073.29 127.655 1073.83 127.8L1077.96 128.907L1076.57 130.296L1072.17 129.118C1071.73 129 1071.31 128.987 1070.91 129.079C1070.5 129.172 1070.16 129.361 1069.87 129.649C1069.56 129.957 1069.46 130.243 1069.55 130.506C1069.66 130.762 1069.98 130.962 1070.52 131.106L1074.66 132.213L1073.27 133.603L1065.91 131.633L1067.3 130.243L1068.08 130.452C1067.74 129.953 1067.92 129.366 1068.59 128.691C1069.25 128.031 1070.09 127.637 1071.12 127.51C1070.77 126.962 1070.95 126.332 1071.66 125.622Z" fill="#6F77BB"/>
<g opacity="0.5">
<path d="M1064.94 149.873C1065.07 149.906 1065.21 149.884 1065.38 149.806C1065.55 149.724 1065.74 149.62 1065.93 149.495C1066.12 149.364 1066.32 149.237 1066.54 149.111C1066.75 148.986 1066.99 148.897 1067.25 148.845C1067.51 148.788 1067.77 148.793 1068.02 148.86C1068.37 148.954 1068.55 149.129 1068.55 149.384C1068.55 149.635 1068.4 149.912 1068.1 150.213C1067.84 150.479 1067.53 150.687 1067.19 150.836C1066.85 150.986 1066.5 151.067 1066.14 151.081L1066.25 150.474C1066.69 150.475 1067.07 150.323 1067.37 150.018C1067.68 149.713 1067.69 149.524 1067.42 149.45C1067.3 149.419 1067.16 149.443 1066.98 149.524C1066.81 149.601 1066.63 149.705 1066.44 149.836C1066.24 149.961 1066.04 150.087 1065.83 150.212C1065.62 150.337 1065.38 150.429 1065.12 150.487C1064.86 150.541 1064.61 150.535 1064.37 150.469C1064.03 150.379 1063.85 150.212 1063.83 149.971C1063.81 149.725 1063.95 149.462 1064.23 149.182C1064.45 148.96 1064.72 148.781 1065.03 148.645C1065.33 148.505 1065.66 148.42 1065.99 148.391L1065.87 148.982C1065.5 149 1065.19 149.131 1064.95 149.376C1064.84 149.487 1064.78 149.589 1064.77 149.683C1064.76 149.776 1064.82 149.839 1064.94 149.873Z" fill="#6F77BB"/>
<path d="M1071.04 142.491L1071.66 141.877L1074.49 143.708L1073.92 144.278L1070.88 144.174L1072.79 145.404L1072.22 145.975L1067.7 145.835L1068.31 145.221L1071.37 145.378L1069.4 144.133L1069.96 143.579L1073.05 143.698L1071.04 142.491Z" fill="#6F77BB"/>
<path d="M1076.27 137.268L1076.85 136.686L1080.53 137.671L1079.95 138.253L1079.42 138.111C1079.62 138.441 1079.51 138.811 1079.1 139.221C1078.73 139.59 1078.23 139.856 1077.59 140.019C1076.95 140.18 1076.36 140.188 1075.82 140.043C1075.28 139.898 1074.95 139.644 1074.84 139.282C1074.73 138.92 1074.86 138.554 1075.23 138.184C1075.64 137.775 1076.16 137.516 1076.79 137.407L1076.27 137.268ZM1077.49 139.446C1077.88 139.344 1078.19 139.17 1078.43 138.926C1078.68 138.682 1078.77 138.45 1078.71 138.229C1078.65 138.007 1078.45 137.851 1078.11 137.76C1077.77 137.669 1077.41 137.675 1077.03 137.778C1076.64 137.879 1076.32 138.052 1076.08 138.296C1075.84 138.54 1075.75 138.773 1075.81 138.995C1075.87 139.215 1076.07 139.371 1076.41 139.462C1076.74 139.552 1077.11 139.547 1077.49 139.446Z" fill="#6F77BB"/>
<path d="M1081.11 132.305C1081.48 131.935 1081.99 131.67 1082.63 131.509C1083.26 131.346 1083.85 131.337 1084.39 131.482C1084.93 131.628 1085.26 131.882 1085.37 132.243C1085.48 132.605 1085.35 132.971 1084.98 133.341C1084.57 133.75 1084.05 134.009 1083.42 134.118L1085.42 134.652L1084.83 135.233L1079.69 133.854L1080.27 133.273L1080.8 133.414C1080.6 133.084 1080.7 132.714 1081.11 132.305ZM1083.19 133.749C1083.58 133.647 1083.89 133.474 1084.13 133.23C1084.38 132.985 1084.47 132.753 1084.41 132.532C1084.35 132.31 1084.15 132.154 1083.81 132.064C1083.47 131.973 1083.11 131.979 1082.73 132.081C1082.34 132.182 1082.02 132.355 1081.78 132.599C1081.54 132.843 1081.45 133.076 1081.51 133.298C1081.57 133.519 1081.77 133.675 1082.11 133.765C1082.44 133.856 1082.81 133.851 1083.19 133.749Z" fill="#6F77BB"/>
</g>
<path fill-rule="evenodd" clip-rule="evenodd" d="M1022.86 127.233C1017.74 132.358 1019.26 138.035 1026.28 139.913C1033.29 141.791 1043.13 139.159 1048.26 134.034C1050.08 132.215 1051.06 130.333 1051.25 128.569C1051.34 128.053 1051.65 127.509 1052.17 126.981C1053.36 125.796 1055.35 125.038 1057.2 124.965C1057.28 124.962 1057.37 124.927 1057.42 124.876C1057.49 124.807 1057.47 124.731 1057.38 124.706L1044.97 121.39C1044.93 121.378 1044.89 121.366 1044.84 121.355C1037.83 119.477 1027.99 122.109 1022.86 127.233ZM1031.4 134.791C1034.54 135.632 1038.95 134.453 1041.25 132.157C1043.55 129.861 1042.86 127.318 1039.72 126.476C1036.58 125.635 1032.17 126.814 1029.87 129.11C1027.57 131.406 1028.26 133.95 1031.4 134.791Z" fill="url(#paint20_linear)"/>
<path d="M1048.26 134.035C1050.08 132.215 1051.06 130.333 1051.25 128.569C1051.34 128.053 1051.64 127.509 1052.17 126.981C1053.36 125.796 1055.35 125.038 1057.2 124.965C1057.28 124.962 1057.37 124.928 1057.42 124.877C1057.49 124.808 1057.47 124.731 1057.37 124.706L1044.97 121.39C1044.93 121.378 1044.89 121.367 1044.84 121.355C1043.43 120.976 1041.9 120.781 1040.32 120.752L1037.45 126.205C1038.24 126.201 1039.01 126.288 1039.72 126.477C1042.86 127.318 1043.55 129.862 1041.25 132.158C1038.95 134.454 1034.54 135.633 1031.4 134.791L1031.99 140.506C1037.95 140.307 1044.42 137.869 1048.26 134.035Z" fill="url(#paint21_linear)"/>
<path fill-rule="evenodd" clip-rule="evenodd" d="M1026.28 139.913C1019.26 138.035 1017.74 132.358 1022.86 127.233C1027.99 122.109 1037.83 119.477 1044.84 121.355C1044.89 121.366 1044.93 121.378 1044.97 121.39L1057.38 124.706C1057.47 124.731 1057.49 124.807 1057.42 124.876C1057.37 124.927 1057.28 124.962 1057.2 124.965C1055.35 125.038 1053.36 125.796 1052.17 126.981C1051.65 127.509 1051.34 128.053 1051.25 128.569C1051.06 130.333 1050.08 132.215 1048.26 134.034C1043.13 139.159 1033.29 141.791 1026.28 139.913ZM1043.05 131.753C1045.74 129.065 1044.94 126.087 1041.26 125.102C1040.95 125.018 1040.62 124.951 1040.29 124.901L1039.03 126.327C1035.96 125.808 1032 126.977 1029.87 129.11C1027.57 131.406 1028.26 133.95 1031.4 134.791C1031.44 134.802 1031.49 134.814 1031.53 134.824L1031.52 134.836C1035.2 135.821 1040.36 134.441 1043.05 131.753Z" fill="url(#paint22_linear)"/>
<path d="M1057.38 124.706C1057.47 124.731 1057.49 124.807 1057.42 124.876C1057.37 124.927 1057.28 124.962 1057.2 124.965C1055.35 125.038 1053.36 125.796 1052.17 126.981C1051.64 127.509 1051.34 128.052 1051.25 128.569C1051.06 130.333 1050.08 132.215 1048.26 134.034C1045.51 136.781 1041.41 138.811 1037.11 139.815L1037.92 134.598C1039.91 134.027 1041.76 133.04 1043.05 131.753C1045 129.805 1045.11 127.705 1043.63 126.322L1047.81 122.147L1057.38 124.706Z" fill="url(#paint23_linear)"/>
<path d="M1022.86 127.233C1017.74 132.358 1019.26 138.035 1026.28 139.913C1033.29 141.791 1043.13 139.159 1048.26 134.034C1049.25 133.047 1049.99 132.041 1050.49 131.046C1046.41 135.095 1038.62 137.171 1033.06 135.683C1031.5 135.265 1030.28 134.612 1029.43 133.798C1028.1 132.617 1028.18 130.797 1029.87 129.11C1031.56 127.424 1034.39 126.34 1037.01 126.216L1039.46 123.765L1038.11 121.301C1038.9 121.076 1039.7 120.893 1040.5 120.756C1034.19 120.592 1026.99 123.103 1022.86 127.233Z" fill="#C4C4C4"/>
<path d="M1022.86 127.233C1017.74 132.358 1019.26 138.035 1026.28 139.913C1033.29 141.791 1043.13 139.159 1048.26 134.034C1049.25 133.047 1049.99 132.041 1050.49 131.046C1046.41 135.095 1038.62 137.171 1033.06 135.683C1031.5 135.265 1030.28 134.612 1029.43 133.797C1028.11 132.616 1028.18 130.797 1029.87 129.11C1031.56 127.424 1034.38 126.34 1037.01 126.217L1039.46 123.765L1038.11 121.301C1038.9 121.076 1039.7 120.893 1040.5 120.756C1034.19 120.592 1026.99 123.103 1022.86 127.233Z" fill="url(#paint24_linear)"/>
<path d="M1045.21 133.129C1046.59 131.754 1046.94 130.294 1046.37 129.134L1049.07 132.142L1047.68 133.792L1041.96 136.382C1040.38 136.774 1037.2 137.549 1037.07 137.514C1036.94 137.479 1037.06 136.597 1037.13 136.161C1040.04 136.19 1043.31 135.024 1045.21 133.129Z" fill="url(#paint25_linear)"/>
<g opacity="0.7">
<path d="M1022.86 127.233C1017.74 132.358 1019.26 138.035 1026.28 139.913C1033.29 141.791 1043.13 139.159 1048.26 134.034C1049.25 133.047 1049.99 132.041 1050.49 131.046C1046.41 135.095 1038.62 137.171 1033.06 135.683C1031.5 135.265 1030.28 134.612 1029.43 133.797C1028.11 132.616 1028.18 130.797 1029.87 129.11C1031.56 127.424 1034.38 126.34 1037.01 126.217L1039.46 123.765L1038.11 121.301C1038.9 121.076 1039.7 120.893 1040.5 120.756C1034.19 120.592 1026.99 123.103 1022.86 127.233Z" fill="url(#paint26_linear)"/>
<path d="M1045.21 133.129C1046.59 131.754 1046.94 130.294 1046.37 129.134L1049.07 132.142L1047.68 133.792L1041.96 136.382C1040.38 136.774 1037.2 137.549 1037.07 137.514C1036.94 137.479 1037.06 136.597 1037.13 136.161C1040.04 136.19 1043.31 135.024 1045.21 133.129Z" fill="url(#paint27_linear)"/>
</g>
<path d="M1029 140.407L1029.19 140.414C1028.47 140.345 1027.76 140.223 1027.1 140.045C1022.05 138.691 1020.94 134.6 1024.64 130.907C1027.03 128.52 1030.83 126.884 1034.59 126.39L1027.8 126.581L1023 130.468L1020.14 135.194C1020.89 137.306 1022.98 139.03 1026.28 139.913C1027.14 140.146 1028.06 140.309 1029 140.407Z" fill="url(#paint28_linear)"/>
<path d="M1020.31 135.61C1019.2 133.156 1019.99 130.108 1022.86 127.233C1027.99 122.109 1037.83 119.477 1044.84 121.355C1044.89 121.366 1044.93 121.378 1044.97 121.39L1057.37 124.706C1057.47 124.731 1057.49 124.807 1057.42 124.876C1057.37 124.927 1057.28 124.962 1057.2 124.965C1055.35 125.038 1053.36 125.796 1052.17 126.981C1051.64 127.509 1051.34 128.053 1051.25 128.569C1051.06 130.333 1050.08 132.215 1048.26 134.034C1047.61 134.679 1046.89 135.284 1046.11 135.845C1048.61 131.971 1046.91 128.122 1041.68 126.721C1035.63 125.101 1027.14 127.371 1022.72 131.793C1021.45 133.056 1020.66 134.357 1020.31 135.61Z" fill="url(#paint29_linear)"/>
<path d="M1042.67 137.873C1044.47 137.013 1046.11 135.965 1047.48 134.758C1047.75 134.523 1048.01 134.281 1048.26 134.034C1048.35 133.906 1048.44 133.768 1048.53 133.627L1047.08 133.683C1046.92 134.388 1046.48 135.126 1045.77 135.841C1044.95 136.659 1043.87 137.337 1042.67 137.837L1042.67 137.873Z" fill="url(#paint30_linear)"/>
</g>
<path d="M1127.52 102.549C1128.64 99.457 1130.99 96.3706 1134.59 93.5913L1178.2 87.6221C1182.42 89.3308 1185.52 91.673 1187.43 94.3496L1188.71 94.1535L1190.22 103.751C1191.04 108.551 1188.81 113.802 1183.35 118.399C1177.58 123.241 1170.53 126.214 1162.07 127.295C1153.64 128.525 1144.87 127.718 1138 124.605C1131.49 121.647 1127.91 117.191 1127.4 112.348L1126.24 102.703L1127.52 102.549Z" fill="#FFA100"/>
<path d="M1187.58 95.0208C1187.14 94.3816 1186.64 93.7688 1186.07 93.164L1188.32 112.604C1188.74 111.884 1189.07 111.092 1189.35 110.369L1187.58 95.0208Z" fill="#FFB433"/>
<path d="M1134.8 93.5252C1133.22 94.7571 1131.9 96.0719 1130.8 97.3981L1133.47 121.912C1133.94 122.277 1134.43 122.62 1134.93 122.961L1132.1 96.7583L1134.64 96.4447L1137.66 124.443C1137.82 124.52 1137.99 124.595 1138.14 124.672C1138.44 124.807 1138.77 124.941 1139.09 125.074L1135.98 96.2791L1138.53 95.9655L1141.75 125.997C1142.22 126.15 1142.69 126.285 1143.16 126.419L1139.87 95.8189L1142.41 95.5053L1145.81 127.034C1146.28 127.13 1146.74 127.208 1147.2 127.285L1143.76 95.3397L1146.3 95.0261L1149.79 127.6C1150.25 127.64 1150.7 127.68 1151.16 127.719L1147.65 94.8795L1150.19 94.5659L1153.78 127.834C1154.23 127.836 1154.69 127.837 1155.14 127.839L1151.53 94.4192L1154.08 94.1056L1157.68 127.743C1158.13 127.707 1158.58 127.67 1159.03 127.634L1155.42 93.94L1157.96 93.6265L1161.63 127.376C1162.07 127.321 1162.52 127.247 1162.96 127.173L1159.31 93.4608L1161.85 93.1473L1165.44 126.685C1165.89 126.592 1166.33 126.479 1166.77 126.367L1163.19 92.9627L1165.73 92.6491L1169.26 125.726C1169.7 125.595 1170.14 125.445 1170.58 125.295L1167.08 92.4835L1169.62 92.1699L1173.05 124.401C1173.49 124.232 1173.95 124.085 1174.38 123.879L1170.96 92.0043L1173.5 91.6907L1176.83 122.692C1177.26 122.466 1177.71 122.219 1178.12 121.977L1174.85 91.5251L1177.39 91.2115L1180.56 120.534C1181 120.23 1181.44 119.959 1181.84 119.64L1178.73 91.0459L1181.28 90.7323L1184.22 117.666C1184.67 117.246 1185.08 116.878 1185.45 116.448L1182.62 90.5477L1182.85 90.519C1181.64 89.6506 1180.27 88.8399 1178.72 88.1273C1175.72 86.75 1172.34 85.8219 1168.77 85.3208L1143.88 88.3903C1140.55 89.7226 1137.45 91.4312 1134.8 93.5252Z" fill="#FFB433"/>
<path d="M1127.85 100.476C1127.56 101.05 1127.31 101.62 1127.12 102.203L1126.74 102.247L1128.43 116.014C1128.85 116.823 1129.32 117.725 1129.94 118.473L1127.85 100.476Z" fill="#FFB433"/>
<path d="M1181.13 109.789C1169.67 118.626 1149.83 121.007 1136.82 115.108C1123.8 109.21 1122.54 97.2437 1134 88.3877C1145.46 79.5506 1165.3 77.1693 1178.31 83.0681C1191.33 88.9859 1192.59 100.933 1181.13 109.789Z" fill="#FFBD4D"/>
<path opacity="0.2" d="M1164.8 101.554C1173.23 95.0434 1174.76 86.8414 1169.81 80.601C1157.68 78.4291 1143.06 81.3468 1133.87 88.464C1125.43 94.9746 1123.9 103.177 1128.86 109.417C1141.01 111.587 1155.6 108.652 1164.8 101.554Z" fill="white"/>
<path opacity="0.7" d="M1181.18 109.579C1169.7 118.468 1149.81 120.821 1136.73 114.834C1130.41 111.941 1126.87 107.62 1126.16 102.926C1126.48 107.993 1130.09 112.711 1136.84 115.823C1149.91 121.81 1169.81 119.457 1181.28 110.568C1187.21 105.976 1189.72 100.516 1188.96 95.5005C1189.28 100.24 1186.73 105.281 1181.18 109.579Z" fill="white"/>
<path d="M1175.63 107.281C1166.85 114.061 1151.63 115.887 1141.67 111.358C1131.7 106.828 1130.73 97.6743 1139.51 90.8945C1148.28 84.1146 1163.5 82.2879 1173.47 86.8176C1183.44 91.3474 1184.4 100.501 1175.63 107.281Z" fill="#FFB433"/>
<path fill-rule="evenodd" clip-rule="evenodd" d="M1168.7 102.429L1169.5 101.822C1170.69 100.925 1171.35 99.8701 1172.01 98.8152C1172.35 98.2648 1172.7 97.7143 1173.12 97.1859C1173.41 96.8167 1173.78 96.4566 1174.23 96.1142C1174.66 95.7875 1175.18 95.4704 1175.74 95.1791C1177.07 94.4868 1178.68 93.9409 1180.12 93.7631L1166.63 88.0957C1159.23 85.0463 1148.13 86.4694 1141.77 91.2962C1135.38 96.1458 1136.19 102.595 1143.59 105.701C1150.99 108.807 1162.16 107.394 1168.55 102.544L1168.56 102.538C1168.61 102.502 1168.66 102.465 1168.7 102.429ZM1166.74 100.152L1166.74 100.146C1166.79 100.108 1166.83 100.082 1166.86 100.057L1166.87 100.047L1167.69 99.4303C1168.2 99.0369 1168.58 98.5745 1169.02 97.9145C1169.11 97.7765 1169.22 97.5975 1169.35 97.3923C1169.72 96.7988 1170.23 95.9869 1170.76 95.3195C1171.22 94.7451 1171.76 94.2264 1172.36 93.7628L1165.48 90.8723C1165.48 90.8711 1165.47 90.8699 1165.47 90.8688C1162.37 89.5923 1158.3 89.1932 1154.19 89.7213C1150.08 90.25 1146.25 91.667 1143.58 93.6882C1140.89 95.7309 1140.34 97.6085 1140.49 98.7755C1140.64 99.9425 1141.64 101.624 1144.75 102.932C1147.85 104.233 1151.94 104.649 1156.07 104.126C1160.2 103.604 1164.06 102.183 1166.74 100.152Z" fill="url(#paint31_linear)"/>
<path d="M1169.5 101.822L1168.7 102.429C1168.66 102.465 1168.61 102.501 1168.56 102.537L1168.55 102.544C1162.16 107.394 1150.99 108.807 1143.59 105.701C1140.03 104.207 1138 101.941 1137.55 99.4511L1137.96 102.667C1138.17 105.39 1140.23 107.904 1144.07 109.516C1151.47 112.622 1162.65 111.209 1169.04 106.359L1169.04 106.353L1169.05 106.352C1169.09 106.316 1169.14 106.28 1169.19 106.244L1169.99 105.637C1171.17 104.74 1171.83 103.685 1172.49 102.63C1172.84 102.08 1173.18 101.529 1173.6 101.001C1173.89 100.632 1174.27 100.272 1174.72 99.9291C1175.15 99.6025 1175.66 99.2853 1176.22 98.994C1177.55 98.3017 1179.16 97.7558 1180.61 97.5781L1180.12 93.763L1180.12 93.7634C1178.67 93.9419 1177.07 94.4872 1175.74 95.1787C1175.18 95.47 1174.66 95.7871 1174.23 96.1137C1173.78 96.4562 1173.41 96.8163 1173.12 97.1855C1173.02 97.3125 1172.92 97.4407 1172.83 97.5699L1172.85 97.5778C1172.83 97.5918 1172.81 97.6058 1172.79 97.62C1172.51 98.0126 1172.26 98.4137 1172.01 98.8148C1171.35 99.8697 1170.69 100.924 1169.5 101.822Z" fill="#F89C00"/>
<path d="M1170 96.3823C1170.24 96.022 1170.5 95.6525 1170.76 95.3191C1171.22 94.7447 1171.76 94.226 1172.36 93.7624L1165.48 90.8719L1165.47 90.8684C1162.37 89.5919 1158.3 89.1928 1154.19 89.7209C1150.08 90.2496 1146.25 91.6666 1143.58 93.6878C1140.89 95.7305 1140.34 97.6081 1140.49 98.7751C1140.56 99.3066 1140.8 99.9447 1141.34 100.606C1141.77 99.6792 1142.6 98.6157 1144.07 97.5032C1146.73 95.482 1150.56 94.0649 1154.67 93.5363C1158.78 93.0081 1162.85 93.4072 1165.95 94.6837L1165.96 94.6872L1170 96.3823Z" fill="#F89C00"/>
<path fill-rule="evenodd" clip-rule="evenodd" d="M1155.54 99.9029C1157.8 99.6171 1159.83 98.8458 1161.18 97.8203C1162.55 96.783 1162.52 96.0766 1162.51 95.9905C1162.5 95.9043 1162.35 95.2135 1160.77 94.5491C1159.2 93.8923 1157.04 93.6516 1154.78 93.9374C1152.52 94.2232 1150.49 94.9945 1149.14 96.02C1147.77 97.0573 1147.8 97.7637 1147.81 97.8498C1147.82 97.936 1147.97 98.6268 1149.55 99.2912C1151.11 99.948 1153.28 100.189 1155.54 99.9029ZM1163 100.212C1159.26 103.051 1152.72 103.878 1148.39 102.06C1144.06 100.242 1143.58 96.4668 1147.32 93.628C1151.06 90.7892 1157.6 89.9619 1161.93 91.7801C1166.26 93.5983 1166.74 97.3735 1163 100.212Z" fill="url(#paint32_linear)"/>
<path d="M1165.9 100.744C1166 100.301 1166.03 99.8599 1165.98 99.4289L1165.44 95.2128L1165.42 95.2199C1165.82 96.8511 1165.03 98.67 1163 100.212C1159.26 103.051 1152.72 103.879 1148.39 102.06C1146.28 101.178 1145.09 99.834 1144.85 98.36L1145.3 101.91C1145.34 102.387 1145.48 102.853 1145.71 103.297C1148.67 104.307 1152.35 104.597 1156.07 104.126C1159.79 103.656 1163.28 102.459 1165.9 100.744Z" fill="#F89C00"/>
<path d="M1155.26 97.7528C1153.26 98.0063 1151.43 98.6418 1150.1 99.4979C1149.91 99.4344 1149.73 99.3655 1149.55 99.2913C1147.97 98.6269 1147.82 97.9361 1147.81 97.8499C1147.8 97.7638 1147.77 97.0574 1149.14 96.0201C1150.49 94.9946 1152.52 94.2233 1154.78 93.9375C1157.04 93.6517 1159.2 93.8924 1160.77 94.5492C1162.35 95.2136 1162.5 95.9044 1162.51 95.9906C1162.52 96.0767 1162.55 96.7831 1161.18 97.8204C1161.03 97.9363 1160.87 98.0489 1160.7 98.1579C1159.2 97.66 1157.27 97.4993 1155.26 97.7528Z" fill="#F89C00"/>
<path d="M1144.8 97.9536C1144.81 98.0002 1144.81 98.0468 1144.81 98.0932L1144.8 97.9573L1144.8 97.9536Z" fill="#F89C00"/>
<path d="M1139.52 92.3678C1148.33 85.5453 1163.62 83.7349 1173.65 88.3276C1178.37 90.4933 1181.09 93.6848 1181.74 97.1632C1181.61 93.1659 1178.83 89.4406 1173.51 86.9931C1163.48 82.4004 1148.18 84.2108 1139.38 91.0333C1134.71 94.6425 1132.79 98.9447 1133.51 102.872C1133.4 99.3086 1135.38 95.5607 1139.52 92.3678Z" fill="#FFA100"/>
<path d="M1321.46 57.6551L1167.3 57.6551C1162.77 57.6551 1159.25 57.6551 1156.6 57.898L1153.29 55.5718L1150.51 60.3819C1148.93 63.1088 1151.47 67.4975 1156.54 76.2749L1233.62 209.718C1238.69 218.495 1241.23 222.884 1245.96 225.611C1250.68 228.338 1255.75 228.338 1265.89 228.338H1420.06C1430.2 228.338 1435.27 228.338 1436.85 225.611L1439.54 220.956L1435.74 218.638C1434.62 216.301 1432.94 213.395 1430.82 209.719L1430.82 209.718L1353.73 76.275C1348.66 67.4975 1346.13 63.1088 1341.4 60.3819C1336.68 57.6551 1331.61 57.6551 1321.46 57.6551Z" fill="url(#paint33_diamond)"/>
<path d="M1159.23 71.6199C1154.16 62.8424 1151.62 58.4536 1153.2 55.7268C1154.77 53 1159.84 53 1169.98 53L1324.15 53C1334.29 53 1339.36 53 1344.09 55.7268C1348.81 58.4537 1351.35 62.8424 1356.42 71.6199L1433.5 205.062C1438.57 213.84 1441.11 218.229 1439.53 220.956C1437.96 223.682 1432.89 223.682 1422.75 223.682H1268.58C1258.44 223.682 1253.37 223.682 1248.64 220.956C1243.92 218.229 1241.38 213.84 1236.31 205.062L1159.23 71.6199Z" fill="url(#paint34_diamond)"/>
<g opacity="0.1">
<path d="M1356.16 77.0177L1346.44 60.192C1345.61 58.749 1343.58 57.5793 1341.91 57.5793C1340.25 57.5793 1339.57 58.749 1340.4 60.192L1350.12 77.0177C1350.96 78.4606 1352.98 79.6304 1354.65 79.6304C1356.32 79.6304 1356.99 78.4606 1356.16 77.0177Z" fill="url(#paint35_linear)"/>
<path d="M1353.7 95.0467L1346.3 82.236C1345.46 80.793 1343.44 79.6233 1341.77 79.6233C1340.1 79.6233 1339.43 80.793 1340.26 82.236L1347.66 95.0467C1348.49 96.4896 1350.52 97.6593 1352.19 97.6593C1353.85 97.6593 1354.53 96.4896 1353.7 95.0467Z" fill="url(#paint36_linear)"/>
<path d="M1358.33 125.357L1344.33 101.119C1343.49 99.6758 1341.47 98.5061 1339.8 98.5061C1338.13 98.5061 1337.46 99.6758 1338.29 101.119L1352.29 125.357C1353.13 126.8 1355.15 127.97 1356.82 127.97C1358.49 127.97 1359.16 126.8 1358.33 125.357Z" fill="url(#paint37_linear)"/>
<path d="M1336.93 110.6L1322.93 86.3615C1322.09 84.9185 1320.07 83.7488 1318.4 83.7488C1316.73 83.7488 1316.06 84.9185 1316.89 86.3615L1330.89 110.6C1331.72 112.043 1333.75 113.212 1335.42 113.212C1337.09 113.212 1337.76 112.043 1336.93 110.6Z" fill="url(#paint38_linear)"/>
<path d="M1305.61 78.6679L1304.81 77.2849C1303.98 75.842 1301.95 74.6723 1300.28 74.6723C1298.62 74.6723 1297.94 75.842 1298.78 77.2849L1299.57 78.6679C1300.41 80.1109 1302.44 81.2806 1304.1 81.2806C1305.77 81.2806 1306.45 80.1109 1305.61 78.6679Z" fill="url(#paint39_linear)"/>
<path d="M1304.55 99.1209L1290.55 74.8826C1289.72 73.4396 1287.69 72.2699 1286.02 72.2699C1284.35 72.2699 1283.68 73.4396 1284.51 74.8826L1298.51 99.1209C1299.35 100.564 1301.37 101.734 1303.04 101.734C1304.71 101.734 1305.38 100.564 1304.55 99.1209Z" fill="url(#paint40_linear)"/>
<path d="M1272.75 66.3568L1267.81 57.8101C1266.98 56.3671 1264.95 55.1974 1263.28 55.1974C1261.62 55.1974 1260.94 56.3671 1261.77 57.8101L1266.71 66.3568C1267.54 67.7997 1269.57 68.9694 1271.24 68.9694C1272.91 68.9694 1273.58 67.7997 1272.75 66.3568Z" fill="url(#paint41_linear)"/>
<path d="M1257.01 61.4062L1254.39 56.8764C1253.56 55.4334 1251.53 54.2637 1249.87 54.2637C1248.2 54.2637 1247.52 55.4334 1248.36 56.8764L1250.97 61.4062C1251.81 62.8491 1253.84 64.0189 1255.5 64.0189C1257.17 64.0189 1257.84 62.8491 1257.01 61.4062Z" fill="url(#paint42_linear)"/>
<path d="M1252.67 76.195L1244.32 61.7365C1243.49 60.2949 1241.46 59.1263 1239.8 59.1263C1238.13 59.1263 1237.46 60.2949 1238.29 61.7365L1246.64 76.195C1247.47 77.6366 1249.5 78.8052 1251.16 78.8052C1252.83 78.8052 1253.5 77.6366 1252.67 76.195Z" fill="url(#paint43_linear)"/>
<path d="M1248.3 90.9232L1234.3 66.6799C1233.47 65.2383 1231.44 64.0697 1229.78 64.0697C1228.11 64.0697 1227.44 65.2383 1228.27 66.6799L1242.27 90.9232C1243.1 92.3648 1245.13 93.5334 1246.8 93.5334C1248.46 93.5334 1249.14 92.3647 1248.3 90.9232Z" fill="url(#paint44_linear)"/>
<path d="M1246.32 109.775L1232.32 85.5363C1231.49 84.0933 1229.46 82.9236 1227.79 82.9236C1226.13 82.9236 1225.45 84.0933 1226.28 85.5363L1240.28 109.775C1241.12 111.218 1243.15 112.387 1244.81 112.387C1246.48 112.387 1247.15 111.218 1246.32 109.775Z" fill="url(#paint45_linear)"/>
<path d="M1235.82 113.879L1235.08 112.598C1234.24 111.155 1232.22 109.985 1230.55 109.985C1228.88 109.985 1228.21 111.155 1229.04 112.598L1229.78 113.879C1230.61 115.322 1232.64 116.491 1234.31 116.491C1235.97 116.491 1236.65 115.322 1235.82 113.879Z" fill="url(#paint46_linear)"/>
<path d="M1234.78 134.375L1220.78 110.137C1219.95 108.694 1217.92 107.524 1216.25 107.524C1214.58 107.524 1213.91 108.694 1214.74 110.137L1228.74 134.375C1229.58 135.818 1231.6 136.988 1233.27 136.988C1234.94 136.988 1235.61 135.818 1234.78 134.375Z" fill="url(#paint47_linear)"/>
<path d="M1210.07 113.879L1196.07 89.6402C1195.23 88.1973 1193.21 87.0275 1191.54 87.0275C1189.87 87.0275 1189.2 88.1973 1190.03 89.6402L1204.03 113.879C1204.87 115.322 1206.89 116.491 1208.56 116.491C1210.23 116.491 1210.9 115.322 1210.07 113.879Z" fill="url(#paint48_linear)"/>
</g>
<path d="M1283.46 186.765L1270.26 186.765L1268.73 184.102L1270.93 177.43C1271.17 176.507 1271.26 175.699 1271.22 175.007C1271.19 174.305 1270.98 173.635 1270.61 172.996C1270.12 172.135 1269.55 171.46 1268.92 170.972C1268.3 170.484 1267.67 170.24 1267.02 170.24C1266.32 170.24 1265.92 170.524 1265.82 171.092C1265.74 171.66 1266 172.459 1266.59 173.489L1262.23 173.489C1261.54 172.299 1261.19 171.212 1261.19 170.226C1261.19 169.241 1261.55 168.477 1262.26 167.936C1262.98 167.385 1263.99 167.11 1265.29 167.11C1267.29 167.11 1269.12 167.59 1270.77 168.548C1272.42 169.498 1273.76 170.852 1274.77 172.61C1275.41 173.702 1275.74 174.812 1275.77 175.939C1275.82 177.058 1275.51 178.438 1274.86 180.08L1274.04 183.636L1281.65 183.636L1283.46 186.765ZM1281.17 177.231L1276.58 167.377L1287.43 167.377L1289.29 170.599L1282.01 170.599L1284.01 174.754C1284.57 174.266 1285.3 174.021 1286.19 174.021C1288.04 174.021 1289.78 174.59 1291.43 175.726C1293.1 176.862 1294.53 178.469 1295.73 180.546C1296.85 182.491 1297.16 184.058 1296.66 185.247C1296.16 186.437 1294.91 187.032 1292.92 187.032C1291.74 187.032 1290.51 186.792 1289.23 186.312C1287.94 185.824 1286.76 185.149 1285.68 184.288C1284.61 183.427 1283.75 182.451 1283.11 181.359L1287.41 181.359C1287.95 182.167 1288.54 182.792 1289.19 183.236C1289.84 183.68 1290.47 183.902 1291.08 183.902C1291.8 183.902 1292.18 183.605 1292.23 183.01C1292.27 182.406 1291.95 181.51 1291.26 180.32C1290.61 179.201 1289.89 178.358 1289.09 177.79C1288.3 177.222 1287.49 176.938 1286.64 176.938C1285.82 176.938 1285.33 177.182 1285.16 177.67L1285.08 178.003L1281.17 177.231ZM1317.87 178.749C1319.42 181.43 1320.04 183.48 1319.73 184.901C1319.44 186.321 1318.25 187.032 1316.17 187.032C1314.11 187.032 1312.11 186.344 1310.19 184.967C1308.27 183.583 1306.55 181.603 1305.02 179.028L1302.91 175.366C1301.36 172.694 1300.74 170.652 1301.05 169.241C1301.34 167.82 1302.54 167.11 1304.63 167.11C1306.72 167.11 1308.73 167.812 1310.66 169.214C1312.58 170.617 1314.31 172.619 1315.83 175.22L1317.87 178.749ZM1311.23 174.82C1310.35 173.293 1309.52 172.148 1308.73 171.385C1307.94 170.621 1307.17 170.24 1306.44 170.24C1305.05 170.24 1305.14 171.638 1306.71 174.434L1309.5 179.268C1310.4 180.831 1311.25 181.993 1312.04 182.757C1312.84 183.52 1313.61 183.902 1314.36 183.902C1315.07 183.902 1315.38 183.547 1315.31 182.837C1315.25 182.118 1314.8 181.021 1313.97 179.548L1311.23 174.82ZM1333.84 178.749C1335.39 181.43 1336.01 183.48 1335.7 184.901C1335.4 186.321 1334.21 187.032 1332.13 187.032C1330.07 187.032 1328.08 186.344 1326.16 184.967C1324.24 183.583 1322.52 181.603 1320.99 179.028L1318.87 175.366C1317.33 172.694 1316.71 170.652 1317.01 169.241C1317.31 167.82 1318.5 167.11 1320.6 167.11C1322.69 167.11 1324.7 167.812 1326.62 169.214C1328.55 170.617 1330.28 172.619 1331.8 175.22L1333.84 178.749ZM1327.2 174.82C1326.32 173.293 1325.48 172.148 1324.69 171.385C1323.9 170.621 1323.14 170.24 1322.4 170.24C1321.02 170.24 1321.11 171.638 1322.67 174.434L1325.47 179.268C1326.37 180.831 1327.21 181.993 1328 182.757C1328.8 183.52 1329.58 183.902 1330.33 183.902C1331.03 183.902 1331.35 183.547 1331.28 182.837C1331.21 182.118 1330.76 181.021 1329.93 179.548L1327.2 174.82ZM1349.81 178.749C1351.35 181.43 1351.98 183.48 1351.67 184.901C1351.37 186.321 1350.18 187.032 1348.1 187.032C1346.04 187.032 1344.05 186.344 1342.13 184.967C1340.21 183.583 1338.49 181.603 1336.96 179.028L1334.84 175.366C1333.3 172.694 1332.68 170.652 1332.98 169.241C1333.28 167.82 1334.47 167.11 1336.56 167.11C1338.65 167.11 1340.66 167.812 1342.59 169.214C1344.52 170.617 1346.24 172.619 1347.77 175.22L1349.81 178.749ZM1343.17 174.82C1342.29 173.293 1341.45 172.148 1340.66 171.385C1339.87 170.621 1339.11 170.24 1338.37 170.24C1336.99 170.24 1337.08 171.638 1338.64 174.434L1341.43 179.268C1342.33 180.831 1343.18 181.993 1343.97 182.757C1344.77 183.52 1345.54 183.902 1346.29 183.902C1347 183.902 1347.32 183.547 1347.25 182.837C1347.18 182.118 1346.73 181.021 1345.9 179.548L1343.17 174.82ZM1370.38 181.652C1369.95 180.915 1369.44 180.333 1368.85 179.907C1368.25 179.481 1367.45 179.082 1366.43 178.709C1364.51 178.105 1363.02 177.528 1361.94 176.978C1360.87 176.418 1359.94 175.784 1359.16 175.073C1358.38 174.354 1357.7 173.502 1357.13 172.517C1356.28 171.043 1356.05 169.827 1356.44 168.868C1356.82 167.9 1357.74 167.328 1359.18 167.15L1357.54 164.3L1359.86 164.3L1361.54 167.203C1363.22 167.461 1364.81 168.136 1366.29 169.228C1367.78 170.319 1369.01 171.704 1369.98 173.382L1365.63 173.382C1365.01 172.317 1364.38 171.522 1363.71 170.999C1363.06 170.475 1362.46 170.213 1361.89 170.213C1361.35 170.213 1361.04 170.417 1360.97 170.825C1360.9 171.234 1361.07 171.802 1361.49 172.53C1361.86 173.16 1362.32 173.684 1362.88 174.101C1363.44 174.519 1364.29 174.954 1365.45 175.406C1367.48 176.081 1369.01 176.698 1370.05 177.257C1371.1 177.808 1372 178.434 1372.75 179.135C1373.51 179.836 1374.16 180.666 1374.71 181.625C1375.58 183.125 1375.82 184.346 1375.44 185.287C1375.08 186.228 1374.13 186.792 1372.62 186.978L1374.15 189.628L1371.85 189.628L1370.32 186.978C1368.41 186.756 1366.67 186.104 1365.08 185.021C1363.48 183.929 1362.16 182.477 1361.12 180.666L1365.47 180.666C1366.08 181.714 1366.74 182.522 1367.45 183.09C1368.17 183.649 1368.91 183.929 1369.69 183.929C1370.32 183.929 1370.69 183.729 1370.81 183.33C1370.93 182.921 1370.79 182.362 1370.38 181.652Z" fill="url(#paint49_linear)"/>
<path d="M1294.22 205.659L1291.79 205.659L1287.04 197.433L1285.13 198.224L1284.12 196.478L1287.73 194.873L1287.98 194.873L1294.22 205.659ZM1297.26 194.777L1298.28 196.552L1298.15 196.552C1297.25 196.557 1296.66 196.794 1296.4 197.263C1296.14 197.726 1296.19 198.377 1296.56 199.216C1296.78 198.703 1297.28 198.446 1298.06 198.446C1298.96 198.446 1299.87 198.779 1300.79 199.445C1301.72 200.111 1302.5 200.999 1303.14 202.108C1303.55 202.813 1303.76 203.45 1303.78 204.017C1303.8 204.584 1303.63 205.025 1303.25 205.341C1302.88 205.652 1302.34 205.807 1301.64 205.807C1300.51 205.807 1299.38 205.415 1298.24 204.631C1297.11 203.847 1296.16 202.791 1295.4 201.465L1294.95 200.688C1294.26 199.499 1293.88 198.459 1293.79 197.566C1293.7 196.673 1293.93 195.988 1294.46 195.509C1295 195.026 1295.8 194.782 1296.88 194.777L1297.26 194.777ZM1298.3 200.177C1298 200.177 1297.78 200.261 1297.67 200.429C1297.56 200.597 1297.53 200.804 1297.57 201.05L1298 201.805C1298.44 202.564 1298.89 203.132 1299.34 203.506C1299.79 203.881 1300.2 204.069 1300.58 204.069C1300.97 204.069 1301.18 203.889 1301.2 203.529C1301.23 203.164 1301.07 202.698 1300.75 202.13C1300.41 201.553 1300.02 201.085 1299.57 200.725C1299.12 200.36 1298.7 200.177 1298.3 200.177ZM1306.15 194.777L1307.17 196.552L1307.03 196.552C1306.13 196.557 1305.55 196.794 1305.28 197.263C1305.02 197.726 1305.08 198.377 1305.45 199.216C1305.67 198.703 1306.17 198.446 1306.95 198.446C1307.85 198.446 1308.76 198.779 1309.68 199.445C1310.61 200.111 1311.39 200.999 1312.03 202.108C1312.44 202.813 1312.65 203.45 1312.67 204.017C1312.69 204.584 1312.51 205.025 1312.14 205.341C1311.76 205.652 1311.23 205.807 1310.53 205.807C1309.4 205.807 1308.27 205.415 1307.13 204.631C1306 203.847 1305.05 202.791 1304.28 201.465L1303.84 200.688C1303.15 199.499 1302.76 198.459 1302.67 197.566C1302.59 196.673 1302.82 195.988 1303.35 195.509C1303.88 195.026 1304.69 194.782 1305.77 194.777L1306.15 194.777ZM1307.19 200.177C1306.88 200.177 1306.67 200.261 1306.56 200.429C1306.45 200.597 1306.41 200.804 1306.45 201.05L1306.89 201.805C1307.33 202.564 1307.77 203.132 1308.22 203.506C1308.67 203.881 1309.09 204.069 1309.47 204.069C1309.86 204.069 1310.06 203.889 1310.09 203.529C1310.11 203.164 1309.96 202.698 1309.63 202.13C1309.3 201.553 1308.91 201.085 1308.45 200.725C1308 200.36 1307.58 200.177 1307.19 200.177ZM1319.1 194.777L1320.12 196.552L1319.99 196.552C1319.09 196.557 1318.5 196.794 1318.24 197.263C1317.98 197.726 1318.03 198.377 1318.4 199.216C1318.62 198.703 1319.12 198.446 1319.9 198.446C1320.8 198.446 1321.71 198.779 1322.63 199.445C1323.56 200.111 1324.34 200.999 1324.98 202.108C1325.39 202.813 1325.6 203.45 1325.62 204.017C1325.64 204.584 1325.47 205.025 1325.09 205.341C1324.72 205.652 1324.18 205.807 1323.48 205.807C1322.35 205.807 1321.22 205.415 1320.08 204.631C1318.95 203.847 1318 202.791 1317.24 201.465L1316.79 200.688C1316.1 199.499 1315.72 198.459 1315.63 197.566C1315.54 196.673 1315.77 195.988 1316.3 195.509C1316.84 195.026 1317.64 194.782 1318.72 194.777L1319.1 194.777ZM1320.14 200.177C1319.84 200.177 1319.62 200.261 1319.51 200.429C1319.4 200.597 1319.37 200.804 1319.41 201.05L1319.84 201.805C1320.28 202.564 1320.73 203.132 1321.18 203.506C1321.63 203.881 1322.04 204.069 1322.42 204.069C1322.81 204.069 1323.02 203.889 1323.04 203.529C1323.07 203.164 1322.91 202.698 1322.59 202.13C1322.25 201.553 1321.86 201.085 1321.41 200.725C1320.96 200.36 1320.54 200.177 1320.14 200.177ZM1327.99 194.777L1329.01 196.552L1328.87 196.552C1327.97 196.557 1327.39 196.794 1327.12 197.263C1326.86 197.726 1326.92 198.377 1327.29 199.216C1327.51 198.703 1328.01 198.446 1328.79 198.446C1329.69 198.446 1330.6 198.779 1331.52 199.445C1332.44 200.111 1333.23 200.999 1333.87 202.108C1334.28 202.813 1334.49 203.45 1334.51 204.017C1334.53 204.584 1334.35 205.025 1333.98 205.341C1333.6 205.652 1333.07 205.807 1332.37 205.807C1331.24 205.807 1330.11 205.415 1328.97 204.631C1327.84 203.847 1326.89 202.791 1326.12 201.465L1325.68 200.688C1324.99 199.499 1324.6 198.459 1324.51 197.566C1324.43 196.673 1324.66 195.988 1325.19 195.509C1325.72 195.026 1326.53 194.782 1327.61 194.777L1327.99 194.777ZM1329.03 200.177C1328.72 200.177 1328.51 200.261 1328.4 200.429C1328.29 200.597 1328.25 200.804 1328.29 201.05L1328.73 201.805C1329.17 202.564 1329.61 203.132 1330.06 203.506C1330.51 203.881 1330.93 204.069 1331.31 204.069C1331.7 204.069 1331.9 203.889 1331.93 203.529C1331.95 203.164 1331.8 202.698 1331.47 202.13C1331.14 201.553 1330.75 201.085 1330.29 200.725C1329.84 200.36 1329.42 200.177 1329.03 200.177ZM1336.87 194.777L1337.9 196.552L1337.76 196.552C1336.86 196.557 1336.27 196.794 1336.01 197.263C1335.75 197.726 1335.8 198.377 1336.17 199.216C1336.39 198.703 1336.9 198.446 1337.68 198.446C1338.58 198.446 1339.49 198.779 1340.41 199.445C1341.33 200.111 1342.11 200.999 1342.76 202.108C1343.16 202.813 1343.38 203.45 1343.4 204.017C1343.42 204.584 1343.24 205.025 1342.86 205.341C1342.49 205.652 1341.95 205.807 1341.25 205.807C1340.12 205.807 1338.99 205.415 1337.86 204.631C1336.73 203.847 1335.78 202.791 1335.01 201.465L1334.56 200.688C1333.88 199.499 1333.49 198.459 1333.4 197.566C1333.32 196.673 1333.54 195.988 1334.07 195.509C1334.61 195.026 1335.42 194.782 1336.5 194.777L1336.87 194.777ZM1337.92 200.177C1337.61 200.177 1337.4 200.261 1337.28 200.429C1337.17 200.597 1337.14 200.804 1337.18 201.05L1337.62 201.805C1338.06 202.564 1338.5 203.132 1338.95 203.506C1339.4 203.881 1339.82 204.069 1340.2 204.069C1340.58 204.069 1340.79 203.889 1340.82 203.529C1340.84 203.164 1340.69 202.698 1340.36 202.13C1340.03 201.553 1339.63 201.085 1339.18 200.725C1338.73 200.36 1338.31 200.177 1337.92 200.177ZM1355.2 203.455L1351.77 203.455L1352.38 205.659L1349.72 205.659L1347.39 194.888L1349.68 194.888L1359.82 205.659L1357.14 205.659L1355.2 203.455ZM1351.27 201.642L1353.59 201.642L1350.21 197.803L1351.27 201.642ZM1362.49 203.854L1366.9 203.854L1367.95 205.659L1361.03 205.659L1354.8 194.888L1357.31 194.888L1362.49 203.854ZM1366.49 194.888L1373.34 202.678L1371.18 194.888L1374.46 194.888L1380.68 205.659L1378.16 205.659L1376.48 202.744L1374.12 198.254L1375.91 205.659L1374.2 205.659L1367.44 198.254L1370.26 202.744L1371.94 205.659L1369.43 205.659L1363.21 194.888L1366.49 194.888Z" fill="url(#paint50_linear)"/>
<g opacity="0.3" filter="url(#filter1_f)">
<path d="M1320.07 200.294C1349.17 197.338 1407.66 191.641 1408.82 192.495L1237.78 66.8228L1183.59 69.6076L1320.07 200.294Z" fill="white"/>
</g>
<path d="M1265.84 110.34H1268.03L1272.28 117.695L1270.09 117.695L1269.58 116.827C1269.34 117.543 1268.63 117.901 1267.44 117.901C1266.31 117.901 1265.12 117.528 1263.87 116.783C1262.63 116.028 1261.7 115.106 1261.07 114.017C1260.44 112.929 1260.31 112.012 1260.68 111.267C1261.06 110.512 1261.82 110.134 1262.95 110.134C1264.14 110.134 1265.27 110.492 1266.34 111.208L1265.84 110.34ZM1264.79 115.518C1265.45 115.9 1266.12 116.091 1266.8 116.091C1267.48 116.091 1267.93 115.9 1268.15 115.518C1268.38 115.125 1268.31 114.625 1267.96 114.017C1267.61 113.409 1267.1 112.914 1266.42 112.532C1265.76 112.14 1265.08 111.943 1264.4 111.943C1263.72 111.943 1263.28 112.14 1263.06 112.532C1262.84 112.914 1262.91 113.409 1263.26 114.017C1263.61 114.625 1264.12 115.125 1264.79 115.518Z" fill="#6F77BB"/>
<path d="M1274.6 117.695L1268.4 106.957L1270.59 106.957L1276.79 117.695H1274.6Z" fill="#6F77BB"/>
<path d="M1275.47 109.458C1275.1 109.458 1274.72 109.345 1274.32 109.119C1273.92 108.884 1273.63 108.609 1273.45 108.296C1273.27 107.982 1273.24 107.707 1273.37 107.472C1273.5 107.237 1273.75 107.119 1274.11 107.119C1274.49 107.119 1274.87 107.237 1275.27 107.472C1275.68 107.707 1275.97 107.982 1276.15 108.296C1276.33 108.609 1276.36 108.884 1276.22 109.119C1276.09 109.345 1275.84 109.458 1275.47 109.458ZM1279.14 117.695L1274.89 110.34H1277.08L1281.33 117.695L1279.14 117.695Z" fill="#6F77BB"/>
<path d="M1285.03 110.34L1287.22 110.34L1291.47 117.695H1289.28L1288.8 116.871C1288.66 117.557 1288.02 117.901 1286.86 117.901C1285.94 117.901 1285.01 117.631 1284.09 117.092C1283.18 116.552 1282.45 115.807 1281.9 114.856L1279.29 110.34L1281.48 110.34L1283.95 114.62C1284.23 115.111 1284.61 115.488 1285.06 115.753C1285.52 116.008 1286 116.135 1286.51 116.135C1287.07 116.135 1287.44 115.983 1287.6 115.68C1287.77 115.376 1287.67 114.92 1287.32 114.312L1285.03 110.34Z" fill="#6F77BB"/>
<path d="M1298.83 110.134C1299.81 110.134 1300.74 110.409 1301.64 110.958C1302.54 111.507 1303.26 112.242 1303.79 113.164L1306.41 117.695H1304.22L1301.68 113.297C1301.43 112.855 1301.1 112.512 1300.71 112.267C1300.32 112.022 1299.9 111.899 1299.45 111.899C1298.95 111.899 1298.64 112.041 1298.52 112.326C1298.41 112.61 1298.52 113.022 1298.83 113.561L1301.22 117.695H1299.02L1296.48 113.297C1296.23 112.855 1295.91 112.512 1295.52 112.267C1295.13 112.022 1294.7 111.899 1294.25 111.899C1293.76 111.899 1293.46 112.041 1293.33 112.326C1293.21 112.61 1293.3 113.022 1293.61 113.561L1296 117.695H1293.81L1289.56 110.34L1291.75 110.34L1292.2 111.12C1292.33 110.463 1292.93 110.134 1294 110.134C1295.04 110.134 1296.01 110.487 1296.92 111.193C1297.07 110.487 1297.71 110.134 1298.83 110.134Z" fill="#6F77BB"/>
<g opacity="0.5">
<path d="M1274.33 123.789C1274.4 123.911 1274.53 124.009 1274.73 124.083C1274.93 124.152 1275.15 124.213 1275.4 124.267C1275.66 124.316 1275.92 124.375 1276.19 124.443C1276.45 124.512 1276.71 124.63 1276.96 124.796C1277.21 124.958 1277.41 125.164 1277.55 125.414C1277.76 125.767 1277.76 126.044 1277.56 126.245C1277.36 126.446 1277.03 126.547 1276.55 126.547C1276.13 126.547 1275.73 126.471 1275.34 126.319C1274.95 126.167 1274.61 125.956 1274.32 125.686L1274.88 125.289C1275.23 125.642 1275.65 125.819 1276.13 125.819C1276.61 125.819 1276.77 125.681 1276.61 125.407C1276.55 125.289 1276.41 125.193 1276.21 125.12C1276.02 125.046 1275.79 124.985 1275.54 124.936C1275.28 124.882 1275.03 124.821 1274.76 124.752C1274.49 124.684 1274.24 124.571 1273.99 124.414C1273.74 124.252 1273.55 124.049 1273.4 123.803C1273.21 123.465 1273.2 123.193 1273.37 122.987C1273.56 122.781 1273.87 122.678 1274.31 122.678C1274.66 122.678 1275.01 122.747 1275.36 122.884C1275.71 123.017 1276.03 123.203 1276.32 123.443L1275.76 123.818C1275.46 123.539 1275.11 123.399 1274.72 123.399C1274.55 123.399 1274.42 123.433 1274.34 123.502C1274.26 123.566 1274.26 123.661 1274.33 123.789Z" fill="#6F77BB"/>
<path d="M1284.95 122.774L1285.92 122.774L1286.71 126.451H1285.81L1283.5 123.973L1284.04 126.451H1283.14L1279.68 122.774L1280.65 122.774L1282.94 125.311L1282.36 122.774L1283.24 122.774L1285.59 125.311L1284.95 122.774Z" fill="#6F77BB"/>
<path d="M1293.19 122.774L1294.11 122.774L1296.23 126.451H1295.31L1295.01 125.922C1294.9 126.338 1294.53 126.547 1293.88 126.547C1293.3 126.547 1292.69 126.36 1292.07 125.988C1291.43 125.61 1290.96 125.152 1290.65 124.612C1290.34 124.068 1290.28 123.61 1290.48 123.237C1290.68 122.865 1291.07 122.678 1291.65 122.678C1292.29 122.678 1292.91 122.884 1293.49 123.296L1293.19 122.774ZM1292.44 125.458C1292.82 125.679 1293.2 125.789 1293.59 125.789C1293.97 125.789 1294.23 125.679 1294.36 125.458C1294.48 125.233 1294.45 124.951 1294.25 124.612C1294.06 124.274 1293.77 123.995 1293.39 123.774C1293 123.549 1292.62 123.436 1292.23 123.436C1291.85 123.436 1291.59 123.549 1291.47 123.774C1291.34 123.995 1291.37 124.274 1291.57 124.612C1291.76 124.951 1292.05 125.233 1292.44 125.458Z" fill="#6F77BB"/>
<path d="M1300.92 122.678C1301.5 122.678 1302.11 122.867 1302.74 123.245C1303.37 123.617 1303.84 124.073 1304.15 124.612C1304.46 125.157 1304.52 125.615 1304.32 125.988C1304.13 126.36 1303.74 126.547 1303.15 126.547C1302.51 126.547 1301.89 126.341 1301.31 125.929L1302.46 127.922L1301.55 127.922L1298.57 122.774L1299.49 122.774L1299.79 123.303C1299.9 122.887 1300.27 122.678 1300.92 122.678ZM1301.42 125.458C1301.8 125.679 1302.19 125.789 1302.57 125.789C1302.96 125.789 1303.21 125.679 1303.34 125.458C1303.46 125.233 1303.43 124.951 1303.23 124.612C1303.04 124.274 1302.75 123.995 1302.37 123.774C1301.98 123.549 1301.6 123.436 1301.21 123.436C1300.83 123.436 1300.57 123.549 1300.45 123.774C1300.32 123.995 1300.35 124.274 1300.55 124.612C1300.75 124.951 1301.04 125.233 1301.42 125.458Z" fill="#6F77BB"/>
</g>
<path fill-rule="evenodd" clip-rule="evenodd" d="M1258.91 72.6118C1250.82 72.6118 1247.55 78.2913 1251.6 85.2973C1255.64 92.3033 1265.48 97.9827 1273.56 97.9827C1276.43 97.9827 1278.69 97.2724 1280.23 96.0351C1280.71 95.6976 1281.38 95.5072 1282.21 95.5072C1284.08 95.5072 1286.25 96.4817 1287.76 97.8767C1287.83 97.9405 1287.93 97.983 1288.01 97.983C1288.12 97.983 1288.16 97.9065 1288.11 97.8122L1280.95 85.4273C1280.92 85.384 1280.9 85.3407 1280.87 85.2973C1276.82 78.2913 1266.99 72.6118 1258.91 72.6118ZM1259.67 85.2969C1261.49 88.4358 1265.89 90.9804 1269.52 90.9804C1273.14 90.9804 1274.6 88.4358 1272.79 85.2969C1270.98 82.1579 1266.57 79.6133 1262.95 79.6133C1259.33 79.6133 1257.86 82.1579 1259.67 85.2969Z" fill="url(#paint51_linear)"/>
<path d="M1273.56 97.9822C1276.43 97.9822 1278.69 97.2718 1280.23 96.0345C1280.71 95.697 1281.38 95.5067 1282.21 95.5067C1284.08 95.5067 1286.25 96.4812 1287.76 97.8761C1287.83 97.9399 1287.93 97.9824 1288.01 97.9824C1288.12 97.9824 1288.16 97.9059 1288.11 97.8116L1280.94 85.4267C1280.92 85.3834 1280.9 85.3401 1280.87 85.2967C1280.05 83.8848 1279 82.5268 1277.78 81.2583L1271.21 83.2926C1271.84 83.9159 1272.38 84.5913 1272.79 85.2968C1274.6 88.4357 1273.14 90.9803 1269.52 90.9803C1265.89 90.9803 1261.49 88.4357 1259.67 85.2968L1255.63 90.2677C1260.48 94.803 1267.51 97.9822 1273.56 97.9822Z" fill="url(#paint52_linear)"/>
<path fill-rule="evenodd" clip-rule="evenodd" d="M1251.6 85.2973C1247.55 78.2913 1250.82 72.6118 1258.91 72.6118C1266.99 72.6118 1276.82 78.2913 1280.87 85.2973C1280.9 85.3407 1280.92 85.384 1280.95 85.4273L1288.11 97.8122C1288.16 97.9065 1288.12 97.983 1288.01 97.983C1287.93 97.983 1287.83 97.9405 1287.76 97.8767C1286.25 96.4817 1284.08 95.5072 1282.21 95.5072C1281.38 95.5072 1280.71 95.6976 1280.23 96.0351C1278.69 97.2724 1276.43 97.9827 1273.56 97.9827C1265.48 97.9827 1255.64 92.3033 1251.6 85.2973ZM1271.25 92.08C1275.49 92.08 1277.21 89.1008 1275.09 85.4259C1274.91 85.1132 1274.71 84.8055 1274.48 84.5043L1272.37 84.6366C1270.35 81.8087 1266.31 79.6133 1262.95 79.6133C1259.33 79.6133 1257.86 82.1579 1259.67 85.2969C1259.7 85.3396 1259.72 85.3823 1259.75 85.4248L1259.73 85.4259C1261.86 89.1008 1267.01 92.08 1271.25 92.08Z" fill="url(#paint53_linear)"/>
<path d="M1288.11 97.8118C1288.16 97.9061 1288.12 97.9826 1288.01 97.9826C1287.93 97.9826 1287.83 97.9401 1287.76 97.8763C1286.25 96.4814 1284.08 95.5068 1282.21 95.5068C1281.38 95.5068 1280.71 95.6972 1280.23 96.0347C1278.69 97.272 1276.43 97.9823 1273.56 97.9823C1269.23 97.9823 1264.39 96.3512 1260.22 93.759L1264.97 90.2828C1266.98 91.3976 1269.22 92.0801 1271.25 92.0801C1274.33 92.0801 1276.07 90.516 1276 88.2563L1282.58 88.2563L1288.11 97.8118Z" fill="url(#paint54_linear)"/>
<path d="M1258.91 72.6118C1250.82 72.6118 1247.55 78.2913 1251.6 85.2973C1255.64 92.3033 1265.48 97.9827 1273.56 97.9827C1275.12 97.9827 1276.5 97.7736 1277.68 97.3846C1271.26 97.3601 1263.49 92.8579 1260.28 87.3076C1259.38 85.753 1258.94 84.2806 1258.9 82.9658C1258.79 80.9893 1260.29 79.6133 1262.95 79.6133C1265.61 79.6133 1268.69 80.9861 1270.86 82.959H1274.73L1275.61 79.9528C1276.4 80.3926 1277.18 80.8768 1277.91 81.3988C1273.07 76.3002 1265.42 72.6118 1258.91 72.6118Z" fill="#C4C4C4"/>
<path d="M1258.91 72.6118C1250.82 72.6118 1247.55 78.2913 1251.6 85.2973C1255.64 92.3033 1265.48 97.9827 1273.56 97.9827C1275.12 97.9827 1276.5 97.7736 1277.68 97.3846C1271.26 97.3601 1263.49 92.8579 1260.28 87.3076C1259.38 85.7503 1258.94 84.2755 1258.9 82.959C1258.79 80.9864 1260.29 79.6138 1262.95 79.6138C1265.61 79.6138 1268.69 80.9864 1270.86 82.959H1274.73L1275.61 79.9528C1276.4 80.3926 1277.18 80.8768 1277.91 81.3988C1273.07 76.3002 1265.42 72.6118 1258.91 72.6118Z" fill="url(#paint55_linear)"/>
<path d="M1271.87 94.8678C1274.04 94.8678 1275.47 93.993 1275.93 92.6283L1275.69 97.1264L1273.3 97.3378L1266.74 94.8678C1265.19 93.9371 1262.07 92.0428 1262 91.9113C1261.92 91.7797 1262.71 91.1782 1263.11 90.8939C1265.38 93.2079 1268.88 94.8678 1271.87 94.8678Z" fill="url(#paint56_linear)"/>
<g opacity="0.7">
<path d="M1258.91 72.6118C1250.82 72.6118 1247.55 78.2913 1251.6 85.2973C1255.64 92.3033 1265.48 97.9827 1273.56 97.9827C1275.12 97.9827 1276.5 97.7736 1277.68 97.3846C1271.26 97.3601 1263.49 92.8579 1260.28 87.3076C1259.38 85.7503 1258.94 84.2755 1258.9 82.959C1258.79 80.9864 1260.29 79.6138 1262.95 79.6138C1265.61 79.6138 1268.69 80.9864 1270.86 82.959H1274.73L1275.61 79.9528C1276.4 80.3926 1277.18 80.8768 1277.91 81.3988C1273.07 76.3002 1265.42 72.6118 1258.91 72.6118Z" fill="url(#paint57_linear)"/>
<path d="M1271.87 94.8678C1274.04 94.8678 1275.47 93.993 1275.93 92.6283L1275.69 97.1264L1273.3 97.3378L1266.74 94.8678C1265.19 93.9371 1262.07 92.0428 1262 91.9113C1261.92 91.7797 1262.71 91.1782 1263.11 90.8939C1265.38 93.2079 1268.88 94.8678 1271.87 94.8678Z" fill="url(#paint58_linear)"/>
</g>
<path d="M1253.35 87.8275L1253.5 87.9859C1252.98 87.3615 1252.52 86.7133 1252.14 86.0485C1249.22 80.9997 1251.58 76.9067 1257.41 76.9067C1261.17 76.9067 1265.46 78.6162 1268.82 81.1883L1263.31 75.989L1256.46 75.269L1250.48 76.7434C1249.41 78.9989 1249.69 82.0011 1251.6 85.2969C1252.1 86.1635 1252.69 87.0098 1253.35 87.8275Z" fill="url(#paint59_linear)"/>
<path d="M1250.29 77.2033C1251.35 74.398 1254.37 72.6113 1258.9 72.6113C1266.99 72.6113 1276.82 78.2908 1280.87 85.2968C1280.9 85.3402 1280.92 85.3835 1280.94 85.4268L1288.11 97.8117C1288.16 97.906 1288.12 97.9825 1288.01 97.9825C1287.93 97.9825 1287.83 97.94 1287.76 97.8762C1286.25 96.4813 1284.08 95.5067 1282.21 95.5067C1281.38 95.5067 1280.71 95.6971 1280.23 96.0346C1278.69 97.2719 1276.43 97.9822 1273.56 97.9822C1272.54 97.9822 1271.5 97.8924 1270.44 97.7215C1275.46 96.6323 1277.16 92.2624 1274.15 87.0374C1270.65 80.9926 1262.17 76.0923 1255.19 76.0923C1253.2 76.0923 1251.55 76.4918 1250.29 77.2033Z" fill="url(#paint60_linear)"/>
<path d="M1266.13 96.6065C1268.22 97.3427 1270.34 97.8101 1272.38 97.9431C1272.78 97.969 1273.17 97.9822 1273.56 97.9822C1273.73 97.9506 1273.91 97.9153 1274.1 97.8774L1272.91 96.7755C1272.22 97.2036 1271.3 97.4461 1270.17 97.4461C1268.88 97.4461 1267.5 97.1289 1266.16 96.5795L1266.13 96.6065Z" fill="url(#paint61_linear)"/>
<path d="M1383.55 119.771C1386.04 119.664 1388.88 120.417 1391.86 122.138L1408.6 150.965C1408.61 154.413 1407.86 157.255 1406.54 159.367L1407.04 160.204L1400.75 164.021C1397.62 165.98 1393.29 165.927 1388.5 163.425C1383.45 160.78 1379.33 156.695 1376.14 151.085C1372.85 145.532 1370.89 139.159 1371.1 133.453C1371.3 128.044 1373.39 124.256 1376.64 122.505L1383.07 118.917L1383.55 119.771Z" fill="#FFA100"/>
<path d="M1406.11 159.661C1406.43 159.173 1406.72 158.646 1406.98 158.074L1393.99 165.239C1394.62 165.327 1395.27 165.329 1395.86 165.32L1406.11 159.661Z" fill="#FFB433"/>
<path d="M1391.97 122.266C1390.65 121.515 1389.35 120.972 1388.1 120.585L1371.68 129.505C1371.56 129.941 1371.46 130.381 1371.37 130.834L1388.92 121.307L1389.88 122.998L1371.12 133.172C1371.11 133.301 1371.1 133.442 1371.09 133.572C1371.09 133.823 1371.08 134.087 1371.08 134.351L1390.38 123.891L1391.33 125.581L1371.2 136.483C1371.23 136.856 1371.27 137.222 1371.31 137.588L1391.82 126.481L1392.77 128.172L1371.65 139.625C1371.71 139.977 1371.79 140.323 1371.87 140.668L1393.27 129.065L1394.23 130.755L1372.39 142.573C1372.5 142.905 1372.6 143.236 1372.7 143.568L1394.71 131.655L1395.67 133.346L1373.38 145.435C1373.51 145.753 1373.64 146.071 1373.77 146.389L1396.16 134.245L1397.11 135.936L1374.56 148.142C1374.72 148.446 1374.87 148.751 1375.03 149.055L1397.61 136.829L1398.56 138.52L1375.96 150.797C1376.12 151.095 1376.3 151.385 1376.48 151.676L1399.06 139.412L1400.02 141.103L1377.54 153.27C1377.73 153.554 1377.94 153.832 1378.14 154.109L1400.53 141.989L1401.48 143.68L1379.31 155.669C1379.53 155.939 1379.76 156.203 1379.99 156.467L1401.99 144.573L1402.94 146.263L1381.33 157.943C1381.57 158.2 1381.81 158.479 1382.08 158.722L1403.44 147.156L1404.39 148.847L1383.62 160.099C1383.9 160.335 1384.2 160.576 1384.49 160.794L1404.89 149.74L1405.85 151.43L1386.2 162.086C1386.54 162.307 1386.86 162.539 1387.2 162.729L1406.35 152.323L1407.3 154.014L1389.27 163.828C1389.69 164.02 1390.07 164.203 1390.47 164.34L1407.82 154.9L1407.9 155.055C1408.16 153.955 1408.34 152.762 1408.39 151.477C1408.49 148.976 1408.17 146.344 1407.5 143.7L1398.18 127.151C1396.29 125.204 1394.2 123.52 1391.97 122.266Z" fill="#FFB433"/>
<path d="M1385.09 119.4C1384.61 119.366 1384.14 119.355 1383.67 119.385L1383.53 119.134L1374.37 124.279C1373.92 124.804 1373.43 125.395 1373.08 126.045L1385.09 119.4Z" fill="#FFB433"/>
<path d="M1393.9 159.398C1384.41 153.914 1377.03 140.707 1377.42 129.895C1377.81 119.082 1385.83 114.755 1395.34 120.231C1404.83 125.715 1412.21 138.922 1411.82 149.735C1411.42 160.554 1403.41 164.874 1393.9 159.398Z" fill="#FFBD4D"/>
<path opacity="0.2" d="M1394.97 145.588C1401.96 149.623 1408.15 148.333 1411.1 143.067C1409.13 133.945 1402.88 124.552 1395.25 120.16C1388.26 116.125 1382.07 117.414 1379.12 122.68C1381.09 131.814 1387.35 141.189 1394.97 145.588Z" fill="white"/>
<path opacity="0.7" d="M1394.06 159.367C1384.52 153.889 1377.15 140.633 1377.59 129.755C1377.79 124.493 1379.8 120.768 1382.89 118.923C1379.43 120.608 1377.16 124.49 1376.92 130.114C1376.49 140.992 1383.86 154.248 1393.4 159.726C1398.32 162.553 1402.87 162.74 1406.17 160.766C1402.94 162.358 1398.67 162.018 1394.06 159.367Z" fill="white"/>
<path d="M1394.07 154.82C1386.8 150.625 1381.14 140.494 1381.44 132.209C1381.75 123.924 1387.89 120.614 1395.17 124.809C1402.45 129.003 1408.11 139.135 1407.8 147.42C1407.49 155.704 1401.35 159.014 1394.07 154.82Z" fill="#FFB433"/>
<path fill-rule="evenodd" clip-rule="evenodd" d="M1395.48 148.574L1396.14 148.959C1397.11 149.529 1398.04 149.689 1398.97 149.848C1399.45 149.931 1399.94 150.015 1400.43 150.156C1400.77 150.255 1401.13 150.412 1401.5 150.629C1401.85 150.837 1402.22 151.103 1402.59 151.412C1403.46 152.146 1404.3 153.114 1404.84 154.076L1404.93 142.993C1404.94 136.935 1400.75 129.57 1395.54 126.505C1390.3 123.426 1386.01 125.853 1385.96 131.928C1385.91 138.002 1390.12 145.422 1395.36 148.501L1395.37 148.505C1395.4 148.528 1395.44 148.552 1395.48 148.574ZM1396.51 146.54L1396.52 146.544C1396.56 146.568 1396.59 146.585 1396.61 146.6L1396.63 146.606L1397.29 146.998C1397.72 147.248 1398.15 147.38 1398.74 147.496C1398.86 147.52 1399.02 147.547 1399.2 147.578C1399.72 147.668 1400.44 147.791 1401.06 147.97C1401.59 148.124 1402.11 148.354 1402.61 148.642L1402.66 142.99C1402.66 142.988 1402.66 142.985 1402.66 142.983C1402.66 140.443 1401.77 137.477 1400.22 134.752C1398.66 132.025 1396.57 129.749 1394.38 128.466C1392.18 127.169 1390.7 127.324 1389.93 127.763C1389.15 128.202 1388.26 129.387 1388.24 131.946C1388.22 134.49 1389.1 137.472 1390.66 140.216C1392.21 142.96 1394.32 145.251 1396.51 146.54Z" fill="url(#paint62_linear)"/>
<path d="M1396.14 148.96L1395.48 148.575C1395.44 148.553 1395.4 148.53 1395.37 148.507L1395.36 148.503C1390.12 145.423 1385.91 138.003 1385.96 131.929C1385.99 129.008 1386.99 126.931 1388.61 125.903L1386.47 127.113C1384.62 128.041 1383.45 130.211 1383.43 133.365C1383.38 139.439 1387.58 146.859 1392.82 149.939L1392.83 149.943L1392.83 149.944C1392.87 149.966 1392.91 149.989 1392.95 150.011L1393.6 150.397C1394.57 150.967 1395.5 151.126 1396.43 151.286C1396.92 151.369 1397.4 151.452 1397.89 151.594C1398.24 151.693 1398.6 151.849 1398.97 152.067C1399.32 152.274 1399.69 152.541 1400.05 152.85C1400.92 153.583 1401.77 154.552 1402.31 155.514L1404.84 154.078L1404.84 154.074C1404.3 153.113 1403.46 152.146 1402.59 151.414C1402.22 151.105 1401.85 150.838 1401.5 150.631C1401.13 150.413 1400.77 150.257 1400.43 150.158C1400.31 150.124 1400.19 150.093 1400.08 150.065L1400.08 150.08C1400.06 150.071 1400.05 150.063 1400.03 150.054C1399.67 149.971 1399.32 149.91 1398.97 149.849C1398.04 149.69 1397.11 149.53 1396.14 148.96Z" fill="#F89C00"/>
<path d="M1400.09 147.742C1400.42 147.807 1400.75 147.882 1401.06 147.972C1401.59 148.126 1402.11 148.355 1402.61 148.644L1402.66 142.991L1402.66 142.984C1402.66 140.445 1401.77 137.479 1400.21 134.754C1398.66 132.026 1396.56 129.751 1394.38 128.467C1392.18 127.17 1390.7 127.325 1389.92 127.764C1389.57 127.964 1389.19 128.319 1388.89 128.888C1389.66 128.921 1390.64 129.197 1391.85 129.904C1394.03 131.187 1396.13 133.462 1397.68 136.19C1399.23 138.915 1400.12 141.881 1400.12 144.421L1400.12 144.428L1400.09 147.742Z" fill="#F89C00"/>
<path fill-rule="evenodd" clip-rule="evenodd" d="M1393.46 138.627C1394.32 140.127 1395.44 141.33 1396.55 141.981C1397.67 142.64 1398.16 142.418 1398.21 142.385C1398.27 142.353 1398.71 142.049 1398.72 140.75C1398.73 139.465 1398.28 137.882 1397.43 136.382C1396.58 134.881 1395.45 133.679 1394.34 133.027C1393.22 132.369 1392.74 132.591 1392.68 132.623C1392.62 132.656 1392.18 132.959 1392.17 134.259C1392.16 135.543 1392.61 137.127 1393.46 138.627ZM1395.4 143.942C1392.33 142.14 1389.87 137.796 1389.89 134.24C1389.92 130.685 1392.43 129.264 1395.5 131.066C1398.57 132.869 1401.03 137.213 1401 140.768C1400.97 144.324 1398.46 145.745 1395.4 143.942Z" fill="url(#paint63_linear)"/>
<path d="M1395.86 146.124C1396.2 146.072 1396.51 145.963 1396.8 145.801L1399.33 144.369C1398.32 144.939 1396.92 144.841 1395.4 143.942C1392.33 142.14 1389.87 137.796 1389.89 134.241C1389.91 132.514 1390.51 131.291 1391.47 130.696L1389.11 132.032C1388.79 132.199 1388.5 132.431 1388.26 132.724C1388.4 135.086 1389.26 137.748 1390.66 140.217C1392.06 142.686 1393.9 144.788 1395.86 146.124Z" fill="#F89C00"/>
<path d="M1394.89 137.818C1394.14 136.487 1393.17 135.39 1392.18 134.705C1392.17 134.553 1392.17 134.404 1392.17 134.259C1392.18 132.96 1392.62 132.656 1392.68 132.624C1392.74 132.591 1393.22 132.369 1394.34 133.028C1395.45 133.679 1396.58 134.881 1397.43 136.382C1398.28 137.882 1398.73 139.466 1398.72 140.75C1398.71 142.049 1398.27 142.353 1398.21 142.385C1398.16 142.418 1397.67 142.64 1396.55 141.981C1396.42 141.908 1396.3 141.827 1396.17 141.74C1396.09 140.545 1395.65 139.149 1394.89 137.818Z" fill="#F89C00"/>
<path d="M1391.74 130.549C1391.71 130.564 1391.68 130.58 1391.65 130.596L1391.74 130.544L1391.74 130.549Z" fill="#F89C00"/>
<path d="M1399.6 144.214L1399.34 144.36C1399.43 144.312 1399.51 144.258 1399.59 144.2L1399.6 144.214Z" fill="#F89C00"/>
<path d="M1394.14 125.244C1401.45 129.449 1407.12 139.639 1406.79 147.987C1406.63 151.912 1405.18 154.737 1402.93 156.194C1405.69 154.951 1407.5 151.933 1407.69 147.503C1408.02 139.155 1402.35 128.964 1395.03 124.76C1391.16 122.528 1387.59 122.422 1385.04 124.056C1387.51 122.957 1390.71 123.264 1394.14 125.244Z" fill="#FFA100"/>
</g>
<defs>
<filter id="filter0_f" x="954.354" y="89.4037" width="258.503" height="102.501" filterUnits="userSpaceOnUse" color-interpolation-filters="sRGB">
<feFlood flood-opacity="0" result="BackgroundImageFix"/>
<feBlend mode="normal" in="SourceGraphic" in2="BackgroundImageFix" result="shape"/>
<feGaussianBlur stdDeviation="9.41681" result="effect1_foregroundBlur"/>
</filter>
<filter id="filter1_f" x="1162.59" y="45.826" width="267.22" height="175.464" filterUnits="userSpaceOnUse" color-interpolation-filters="sRGB">
<feFlood flood-opacity="0" result="BackgroundImageFix"/>
<feBlend mode="normal" in="SourceGraphic" in2="BackgroundImageFix" result="shape"/>
<feGaussianBlur stdDeviation="10.4984" result="effect1_foregroundBlur"/>
</filter>
<linearGradient id="paint0_linear" x1="1189.8" y1="549.802" x2="1019.94" y2="82.0728" gradientUnits="userSpaceOnUse">
<stop stop-color="#EDEFF9" stop-opacity="0"/>
<stop offset="1" stop-color="#EDEFF9"/>
</linearGradient>
<linearGradient id="paint1_linear" x1="1246.52" y1="525.242" x2="1026.35" y2="210.295" gradientUnits="userSpaceOnUse">
<stop stop-color="#E3E6F8" stop-opacity="0"/>
<stop offset="1" stop-color="#E3E6F8"/>
</linearGradient>
<radialGradient id="paint2_diamond" cx="0" cy="0" r="1" gradientUnits="userSpaceOnUse" gradientTransform="translate(1096.25 236.561) rotate(-62.5164) scale(223.837 286.287)">
<stop stop-color="#99A2D3"/>
<stop offset="0.557292" stop-color="#9EA7D7"/>
<stop offset="1" stop-color="#E4E8FF"/>
</radialGradient>
<radialGradient id="paint3_diamond" cx="0" cy="0" r="1" gradientUnits="userSpaceOnUse" gradientTransform="translate(1101.41 217.485) rotate(-103.276) scale(154.703 402.452)">
<stop offset="0.385417" stop-color="#B9BFE6"/>
<stop offset="0.557292" stop-color="#C8CDE9"/>
<stop offset="0.713542" stop-color="#E4E8FF"/>
<stop offset="0.864583" stop-color="#F2F4FF"/>
<stop offset="1" stop-color="#E4E8FF"/>
</radialGradient>
<linearGradient id="paint4_linear" x1="989.285" y1="179.082" x2="1007.97" y2="197.779" gradientUnits="userSpaceOnUse">
<stop stop-color="#7782C8"/>
<stop offset="1" stop-color="#B9BFE6" stop-opacity="0"/>
</linearGradient>
<linearGradient id="paint5_linear" x1="989.285" y1="179.082" x2="1007.97" y2="197.779" gradientUnits="userSpaceOnUse">
<stop stop-color="#7782C8"/>
<stop offset="1" stop-color="#B9BFE6" stop-opacity="0"/>
</linearGradient>
<linearGradient id="paint6_linear" x1="989.285" y1="179.082" x2="1007.97" y2="197.779" gradientUnits="userSpaceOnUse">
<stop stop-color="#7782C8"/>
<stop offset="1" stop-color="#B9BFE6" stop-opacity="0"/>
</linearGradient>
<linearGradient id="paint7_linear" x1="989.285" y1="179.082" x2="1007.97" y2="197.779" gradientUnits="userSpaceOnUse">
<stop stop-color="#7782C8"/>
<stop offset="1" stop-color="#B9BFE6" stop-opacity="0"/>
</linearGradient>
<linearGradient id="paint8_linear" x1="989.285" y1="179.082" x2="1007.97" y2="197.779" gradientUnits="userSpaceOnUse">
<stop stop-color="#7782C8"/>
<stop offset="1" stop-color="#B9BFE6" stop-opacity="0"/>
</linearGradient>
<linearGradient id="paint9_linear" x1="989.285" y1="179.082" x2="1007.97" y2="197.779" gradientUnits="userSpaceOnUse">
<stop stop-color="#7782C8"/>
<stop offset="1" stop-color="#B9BFE6" stop-opacity="0"/>
</linearGradient>
<linearGradient id="paint10_linear" x1="989.285" y1="179.082" x2="1007.97" y2="197.779" gradientUnits="userSpaceOnUse">
<stop stop-color="#7782C8"/>
<stop offset="1" stop-color="#B9BFE6" stop-opacity="0"/>
</linearGradient>
<linearGradient id="paint11_linear" x1="989.285" y1="179.082" x2="1007.97" y2="197.779" gradientUnits="userSpaceOnUse">
<stop stop-color="#7782C8"/>
<stop offset="1" stop-color="#B9BFE6" stop-opacity="0"/>
</linearGradient>
<linearGradient id="paint12_linear" x1="989.285" y1="179.082" x2="1007.97" y2="197.779" gradientUnits="userSpaceOnUse">
<stop stop-color="#7782C8"/>
<stop offset="1" stop-color="#B9BFE6" stop-opacity="0"/>
</linearGradient>
<linearGradient id="paint13_linear" x1="989.285" y1="179.082" x2="1007.97" y2="197.779" gradientUnits="userSpaceOnUse">
<stop stop-color="#7782C8"/>
<stop offset="1" stop-color="#B9BFE6" stop-opacity="0"/>
</linearGradient>
<linearGradient id="paint14_linear" x1="989.285" y1="179.082" x2="1007.97" y2="197.779" gradientUnits="userSpaceOnUse">
<stop stop-color="#7782C8"/>
<stop offset="1" stop-color="#B9BFE6" stop-opacity="0"/>
</linearGradient>
<linearGradient id="paint15_linear" x1="989.285" y1="179.082" x2="1007.97" y2="197.779" gradientUnits="userSpaceOnUse">
<stop stop-color="#7782C8"/>
<stop offset="1" stop-color="#B9BFE6" stop-opacity="0"/>
</linearGradient>
<linearGradient id="paint16_linear" x1="989.285" y1="179.082" x2="1007.97" y2="197.779" gradientUnits="userSpaceOnUse">
<stop stop-color="#7782C8"/>
<stop offset="1" stop-color="#B9BFE6" stop-opacity="0"/>
</linearGradient>
<linearGradient id="paint17_linear" x1="989.285" y1="179.082" x2="1007.97" y2="197.779" gradientUnits="userSpaceOnUse">
<stop stop-color="#7782C8"/>
<stop offset="1" stop-color="#B9BFE6" stop-opacity="0"/>
</linearGradient>
<linearGradient id="paint18_linear" x1="1157" y1="106.072" x2="1151.94" y2="193.03" gradientUnits="userSpaceOnUse">
<stop stop-color="#C4CAFF"/>
<stop offset="0.661458" stop-color="#7A84DC"/>
</linearGradient>
<linearGradient id="paint19_linear" x1="1180.14" y1="121.211" x2="1181.71" y2="189.223" gradientUnits="userSpaceOnUse">
<stop stop-color="#C4CAFF"/>
<stop offset="0.661458" stop-color="#7A84DC"/>
</linearGradient>
<linearGradient id="paint20_linear" x1="1052.81" y1="129.488" x2="1038.76" y2="138.746" gradientUnits="userSpaceOnUse">
<stop stop-color="#069F5F"/>
<stop offset="1" stop-color="#007E49"/>
</linearGradient>
<linearGradient id="paint21_linear" x1="1044.27" y1="127.949" x2="1045.1" y2="138.269" gradientUnits="userSpaceOnUse">
<stop stop-color="#005531"/>
<stop offset="1" stop-color="#005531" stop-opacity="0"/>
</linearGradient>
<linearGradient id="paint22_linear" x1="1052.81" y1="129.488" x2="1038.76" y2="138.746" gradientUnits="userSpaceOnUse">
<stop stop-color="#0FA968"/>
<stop offset="1" stop-color="#088E56"/>
</linearGradient>
<linearGradient id="paint23_linear" x1="1048.86" y1="129.791" x2="1044.58" y2="138.248" gradientUnits="userSpaceOnUse">
<stop stop-color="#005531"/>
<stop offset="1" stop-color="#005531" stop-opacity="0"/>
</linearGradient>
<linearGradient id="paint24_linear" x1="1040.09" y1="137.181" x2="1030.31" y2="130.051" gradientUnits="userSpaceOnUse">
<stop stop-color="#0FA968"/>
<stop offset="1" stop-color="#0D995E"/>
</linearGradient>
<linearGradient id="paint25_linear" x1="1040.09" y1="137.181" x2="1030.31" y2="130.051" gradientUnits="userSpaceOnUse">
<stop stop-color="#0FA968"/>
<stop offset="1" stop-color="#0D995E"/>
</linearGradient>
<linearGradient id="paint26_linear" x1="1036.66" y1="136.209" x2="1030.93" y2="128.235" gradientUnits="userSpaceOnUse">
<stop stop-color="#008C51" stop-opacity="0"/>
<stop offset="1" stop-color="#00643A"/>
</linearGradient>
<linearGradient id="paint27_linear" x1="1036.66" y1="136.209" x2="1030.93" y2="128.235" gradientUnits="userSpaceOnUse">
<stop stop-color="#008C51" stop-opacity="0"/>
<stop offset="1" stop-color="#00643A"/>
</linearGradient>
<linearGradient id="paint28_linear" x1="1038.48" y1="129.761" x2="1031.15" y2="123.67" gradientUnits="userSpaceOnUse">
<stop stop-color="#13AC6C"/>
<stop offset="1" stop-color="#15BF78"/>
</linearGradient>
<linearGradient id="paint29_linear" x1="1052.96" y1="126.605" x2="1037.43" y2="114.952" gradientUnits="userSpaceOnUse">
<stop stop-color="#24BA7B"/>
<stop offset="1" stop-color="#33D993"/>
</linearGradient>
<linearGradient id="paint30_linear" x1="1052.96" y1="126.605" x2="1037.43" y2="114.952" gradientUnits="userSpaceOnUse">
<stop stop-color="#24BA7B"/>
<stop offset="1" stop-color="#33D993"/>
</linearGradient>
<linearGradient id="paint31_linear" x1="1140.26" y1="95.605" x2="1198.39" y2="56.7746" gradientUnits="userSpaceOnUse">
<stop stop-color="#FFD387"/>
<stop offset="1" stop-color="#FFD387" stop-opacity="0"/>
</linearGradient>
<linearGradient id="paint32_linear" x1="1146.12" y1="96.1904" x2="1176.54" y2="78.8517" gradientUnits="userSpaceOnUse">
<stop stop-color="#FFD387"/>
<stop offset="1" stop-color="#FFD387" stop-opacity="0"/>
</linearGradient>
<radialGradient id="paint33_diamond" cx="0" cy="0" r="1" gradientUnits="userSpaceOnUse" gradientTransform="translate(1230.53 216.619) rotate(-17.5201) scale(249.639 319.051)">
<stop stop-color="#99A2D3"/>
<stop offset="0.557292" stop-color="#9EA7D7"/>
<stop offset="1" stop-color="#E4E8FF"/>
</radialGradient>
<radialGradient id="paint34_diamond" cx="0" cy="0" r="1" gradientUnits="userSpaceOnUse" gradientTransform="translate(1248.43 211.367) rotate(-58.8914) scale(178.005 462.966)">
<stop stop-color="#B9BFE6"/>
<stop offset="0.473883" stop-color="#C8CDE9"/>
<stop offset="0.713542" stop-color="#E4E8FF"/>
<stop offset="0.864583" stop-color="#F2F4FF"/>
<stop offset="1" stop-color="#E4E8FF"/>
</radialGradient>
<linearGradient id="paint35_linear" x1="1191.54" y1="87.0276" x2="1191.54" y2="116.491" gradientUnits="userSpaceOnUse">
<stop stop-color="#7782C8"/>
<stop offset="1" stop-color="#B9BFE6" stop-opacity="0"/>
</linearGradient>
<linearGradient id="paint36_linear" x1="1191.54" y1="87.0276" x2="1191.54" y2="116.491" gradientUnits="userSpaceOnUse">
<stop stop-color="#7782C8"/>
<stop offset="1" stop-color="#B9BFE6" stop-opacity="0"/>
</linearGradient>
<linearGradient id="paint37_linear" x1="1191.54" y1="87.0276" x2="1191.54" y2="116.491" gradientUnits="userSpaceOnUse">
<stop stop-color="#7782C8"/>
<stop offset="1" stop-color="#B9BFE6" stop-opacity="0"/>
</linearGradient>
<linearGradient id="paint38_linear" x1="1191.54" y1="87.0276" x2="1191.54" y2="116.491" gradientUnits="userSpaceOnUse">
<stop stop-color="#7782C8"/>
<stop offset="1" stop-color="#B9BFE6" stop-opacity="0"/>
</linearGradient>
<linearGradient id="paint39_linear" x1="1191.54" y1="87.0276" x2="1191.54" y2="116.491" gradientUnits="userSpaceOnUse">
<stop stop-color="#7782C8"/>
<stop offset="1" stop-color="#B9BFE6" stop-opacity="0"/>
</linearGradient>
<linearGradient id="paint40_linear" x1="1191.54" y1="87.0276" x2="1191.54" y2="116.491" gradientUnits="userSpaceOnUse">
<stop stop-color="#7782C8"/>
<stop offset="1" stop-color="#B9BFE6" stop-opacity="0"/>
</linearGradient>
<linearGradient id="paint41_linear" x1="1191.54" y1="87.0276" x2="1191.54" y2="116.491" gradientUnits="userSpaceOnUse">
<stop stop-color="#7782C8"/>
<stop offset="1" stop-color="#B9BFE6" stop-opacity="0"/>
</linearGradient>
<linearGradient id="paint42_linear" x1="1191.54" y1="87.0276" x2="1191.54" y2="116.491" gradientUnits="userSpaceOnUse">
<stop stop-color="#7782C8"/>
<stop offset="1" stop-color="#B9BFE6" stop-opacity="0"/>
</linearGradient>
<linearGradient id="paint43_linear" x1="1191.54" y1="87.0276" x2="1191.54" y2="116.491" gradientUnits="userSpaceOnUse">
<stop stop-color="#7782C8"/>
<stop offset="1" stop-color="#B9BFE6" stop-opacity="0"/>
</linearGradient>
<linearGradient id="paint44_linear" x1="1191.54" y1="87.0276" x2="1191.54" y2="116.491" gradientUnits="userSpaceOnUse">
<stop stop-color="#7782C8"/>
<stop offset="1" stop-color="#B9BFE6" stop-opacity="0"/>
</linearGradient>
<linearGradient id="paint45_linear" x1="1191.54" y1="87.0276" x2="1191.54" y2="116.491" gradientUnits="userSpaceOnUse">
<stop stop-color="#7782C8"/>
<stop offset="1" stop-color="#B9BFE6" stop-opacity="0"/>
</linearGradient>
<linearGradient id="paint46_linear" x1="1191.54" y1="87.0276" x2="1191.54" y2="116.491" gradientUnits="userSpaceOnUse">
<stop stop-color="#7782C8"/>
<stop offset="1" stop-color="#B9BFE6" stop-opacity="0"/>
</linearGradient>
<linearGradient id="paint47_linear" x1="1191.54" y1="87.0276" x2="1191.54" y2="116.491" gradientUnits="userSpaceOnUse">
<stop stop-color="#7782C8"/>
<stop offset="1" stop-color="#B9BFE6" stop-opacity="0"/>
</linearGradient>
<linearGradient id="paint48_linear" x1="1191.54" y1="87.0276" x2="1191.54" y2="116.491" gradientUnits="userSpaceOnUse">
<stop stop-color="#7782C8"/>
<stop offset="1" stop-color="#B9BFE6" stop-opacity="0"/>
</linearGradient>
<linearGradient id="paint49_linear" x1="1372.22" y1="161.616" x2="1306.22" y2="217.813" gradientUnits="userSpaceOnUse">
<stop stop-color="#C4CAFF"/>
<stop offset="0.661458" stop-color="#7A84DC"/>
</linearGradient>
<linearGradient id="paint50_linear" x1="1380.11" y1="191.784" x2="1331.39" y2="240.06" gradientUnits="userSpaceOnUse">
<stop stop-color="#C4CAFF"/>
<stop offset="0.661458" stop-color="#7A84DC"/>
</linearGradient>
<linearGradient id="paint51_linear" x1="1280.73" y1="97.983" x2="1262.36" y2="94.203" gradientUnits="userSpaceOnUse">
<stop stop-color="#069F5F"/>
<stop offset="1" stop-color="#007E49"/>
</linearGradient>
<linearGradient id="paint52_linear" x1="1275.22" y1="90.0464" x2="1267.74" y2="98.8396" gradientUnits="userSpaceOnUse">
<stop stop-color="#005531"/>
<stop offset="1" stop-color="#005531" stop-opacity="0"/>
</linearGradient>
<linearGradient id="paint53_linear" x1="1280.73" y1="97.983" x2="1262.36" y2="94.203" gradientUnits="userSpaceOnUse">
<stop stop-color="#0FA968"/>
<stop offset="1" stop-color="#088E56"/>
</linearGradient>
<linearGradient id="paint54_linear" x1="1277.38" y1="95.1081" x2="1267.34" y2="98.4063" gradientUnits="userSpaceOnUse">
<stop stop-color="#005531"/>
<stop offset="1" stop-color="#005531" stop-opacity="0"/>
</linearGradient>
<linearGradient id="paint55_linear" x1="1264.64" y1="94.0281" x2="1262.55" y2="80.701" gradientUnits="userSpaceOnUse">
<stop stop-color="#0FA968"/>
<stop offset="1" stop-color="#0D995E"/>
</linearGradient>
<linearGradient id="paint56_linear" x1="1264.64" y1="94.0281" x2="1262.55" y2="80.701" gradientUnits="userSpaceOnUse">
<stop stop-color="#0FA968"/>
<stop offset="1" stop-color="#0D995E"/>
</linearGradient>
<linearGradient id="paint57_linear" x1="1262.7" y1="90.5569" x2="1264.47" y2="79.7568" gradientUnits="userSpaceOnUse">
<stop stop-color="#008C51" stop-opacity="0"/>
<stop offset="1" stop-color="#00643A"/>
</linearGradient>
<linearGradient id="paint58_linear" x1="1262.7" y1="90.5569" x2="1264.47" y2="79.7568" gradientUnits="userSpaceOnUse">
<stop stop-color="#008C51" stop-opacity="0"/>
<stop offset="1" stop-color="#00643A"/>
</linearGradient>
<linearGradient id="paint59_linear" x1="1269.22" y1="86.9075" x2="1268.25" y2="76.3359" gradientUnits="userSpaceOnUse">
<stop stop-color="#13AC6C"/>
<stop offset="1" stop-color="#15BF78"/>
</linearGradient>
<linearGradient id="paint60_linear" x1="1283.13" y1="95.8309" x2="1280.06" y2="74.4061" gradientUnits="userSpaceOnUse">
<stop stop-color="#24BA7B"/>
<stop offset="1" stop-color="#33D993"/>
</linearGradient>
<linearGradient id="paint61_linear" x1="1283.13" y1="95.8309" x2="1280.06" y2="74.4061" gradientUnits="userSpaceOnUse">
<stop stop-color="#24BA7B"/>
<stop offset="1" stop-color="#33D993"/>
</linearGradient>
<linearGradient id="paint62_linear" x1="1392.08" y1="126.692" x2="1436" y2="156.27" gradientUnits="userSpaceOnUse">
<stop stop-color="#FFD387"/>
<stop offset="1" stop-color="#FFD387" stop-opacity="0"/>
</linearGradient>
<linearGradient id="paint63_linear" x1="1393.36" y1="130.966" x2="1414.25" y2="147.3" gradientUnits="userSpaceOnUse">
<stop stop-color="#FFD387"/>
<stop offset="1" stop-color="#FFD387" stop-opacity="0"/>
</linearGradient>
</defs>
</svg>
